<?xml version="1.0" encoding="iso-8859-1"?>
<!-- Generator: Adobe Illustrator 18.0.0, SVG Export Plug-In . SVG Version: 6.00 Build 0)  -->
<svg version="1.1" xmlns="http://www.w3.org/2000/svg" xmlns:xlink="http://www.w3.org/1999/xlink" x="0px" y="0px" width="500px"
	 height="500px" viewBox="0 0 500 500" style="enable-background:new 0 0 500 500;" xml:space="preserve">
<g id="computer" style="display:none;">
	<g style="display:inline;">
		<g id="XMLID_17_">
			<g>
				<path d="M83.859,91.981c12.908-0.869,25.867-0.574,38.806-0.33c104.334,1.967,208.734,0.452,312.971-4.528
					c1.88,15.266,1.957,30.69,2.028,46.068c0.254,54.576,0.513,109.151,0.767,163.722c0.025,5.895,0.066,11.877,1.687,17.538
					c0.971,3.395-3.842,5.229-7.364,5.417c-48.391,2.566-96.777,5.133-145.168,7.704c0.767,18.956,1.53,37.917,2.292,56.878
					c15.886-0.346,31.813,1.057,47.395,4.182c7.15,1.433,15.932,5.412,15.338,12.68c-0.351,4.289-4.05,7.455-7.633,9.829
					c-26.579,17.599-60.451,18.692-92.325,18.504c-29.821-0.178-59.729-0.981-89.215-5.453c-4.813-0.732-9.905-1.697-13.488-4.996
					c-3.583-3.298-4.691-9.737-0.96-12.873c18.407-15.454,42.694-23.728,66.712-22.722c6.896,0.29,8.838-9.31,8.35-16.196
					c-0.828-11.663-1.652-23.326-2.475-34.99c-0.102-1.448-0.244-2.998-1.154-4.132c-1.26-1.56-3.507-1.794-5.509-1.896
					c-46.866-2.455-93.916-1.326-140.609,3.364c-3.832-1.621-7.659-3.237-11.49-4.858c3.512-6.225,3.07-14.463-1.082-20.277
					c-0.894-1.25-1.997-2.556-1.891-4.091c0.102-1.53,2.404-2.678,3.171-1.352c3.171-65.97,4.498-132.036,3.979-198.082
					c-2.942,0.356-5.982-0.147-8.655-1.428c-1.738-2.328,2.007-4.823,4.874-5.295C70.046,93.241,76.943,92.444,83.859,91.981z
					 M430.082,103.334c0.493-5.692-7.364-7.643-13.071-7.496c-20.74,0.534-41.484,1.067-62.224,1.601
					c-10.271,0.264-20.536,0.529-30.807,0.757c-68.871,1.525-137.773,1.367-206.635-0.457c-14.291-0.381-28.627-0.833-42.836,0.691
					c-1.016,65.843-2.033,131.68-3.049,197.523c-0.036,2.389-0.102,4.884-1.245,6.978c-2.627,4.813-2.902,10.84-0.727,15.871
					c32.876,6.993,66.92-3.232,100.497-1.687c84.483,3.893,169.221,2.251,253.491-4.909c1.189-0.102,2.495-0.259,3.308-1.133
					c0.696-0.752,0.854-1.845,0.966-2.866c4.411-39.167,0.559-78.72-0.366-118.126C426.702,161.142,427.607,132.17,430.082,103.334z
					 M271.746,326.211c-13.752,0-27.504,0-41.256,0c-1.774,0-4.203,0.696-3.964,2.45c3.136,22.966,3.801,46.262,1.977,69.364
					c-0.132,1.718,1.957,2.627,3.644,2.988c14.585,3.115,29.613,4.152,44.488,3.07c1.418-0.102,2.953-0.274,3.994-1.25
					c1.118-1.057,1.331-2.734,1.464-4.269c1.789-20.633,1.636-41.439-0.447-62.041c-0.356-3.522-1.088-7.557-4.162-9.315
					C275.776,326.236,273.708,326.211,271.746,326.211z M221.867,389.009c-1.845-1.464-4.467-1.215-6.8-0.9
					c-21.416,2.932-44.524,6.683-59.617,22.163c-1.743,1.784-0.889,4.991,1.067,6.535c1.957,1.54,4.579,1.865,7.054,2.124
					c34.415,3.578,69.039,5.138,103.637,4.681c26.858-0.361,55.607-2.617,76.708-19.241c1.027-0.808,2.104-1.779,2.251-3.08
					c0.244-2.104-1.982-3.573-3.933-4.406c-14.778-6.286-31.346-6.398-47.405-6.414c-1.575-0.005-3.247,0.02-4.579,0.869
					c-1.326,0.844-2.048,2.836-1.032,4.04c2.592,3.064,1.123,8.106-2.023,10.601c-3.151,2.49-7.364,3.075-11.368,3.41
					c-17.919,1.525-36.092-0.03-53.493-4.569c-1.138-0.3-2.338-0.645-3.131-1.514c-0.798-0.869-0.945-2.434,0.005-3.125
					C222.791,397.557,225.343,391.774,221.867,389.009z"/>
				<path style="fill:#FFFFFF;" d="M417.011,95.838c5.707-0.147,13.564,1.804,13.071,7.496c-2.475,28.835-3.38,57.808-2.699,86.745
					c0.925,39.406,4.777,78.959,0.366,118.126c-0.112,1.021-0.269,2.114-0.966,2.866c-0.813,0.874-2.119,1.032-3.308,1.133
					c-84.27,7.161-169.007,8.802-253.491,4.909c-33.577-1.545-67.621,8.68-100.497,1.687c-2.175-5.031-1.901-11.058,0.727-15.871
					c1.143-2.094,1.21-4.589,1.245-6.978c1.016-65.843,2.033-131.68,3.049-197.523c14.209-1.525,28.546-1.072,42.836-0.691
					c68.861,1.824,137.763,1.982,206.635,0.457c10.271-0.229,20.536-0.493,30.807-0.757
					C375.526,96.906,396.271,96.372,417.011,95.838z M239.303,102.608c-47.446-0.01-95.044,10.774-142.017,4.066
					c-3.791-0.539-7.735-1.184-11.389-0.025c-3.649,1.164-6.845,4.803-6.063,8.553c5.026,24.063,4.833,48.869,4.62,73.445
					c-0.31,35.544-0.62,71.087-0.93,106.631c-0.041,4.472-0.041,9.132,1.921,13.157c15.48-3.161,31.453-2.561,47.242-1.946
					c5.651,0.219,11.75,0.6,16.125,4.188c-0.742-2.831,3.171-4.386,6.088-4.62c51.689-4.162,103.917-0.823,155.306-7.801
					c6.764-0.92,14.438-1.779,19.683,2.592c0.676-1.56,1.352-3.12,2.023-4.681c27.316,0.742,54.627,1.484,81.937,2.226
					c4.122,0.112,9.747-1.174,9.61-5.295c-4.335,1.072-9.076-3.141-8.523-7.572c4.132-33.191,3.125-66.783,2.109-100.217
					c-0.747-24.734-1.499-49.468-2.251-74.202c-0.127-4.198-5.849-5.24-10.037-5.011c-35.6,1.931-71.306,1.784-106.885-0.432
					C278.358,104.447,258.858,102.608,239.303,102.608z"/>
				<path d="M97.286,106.673c46.973,6.708,94.571-4.076,142.017-4.066c19.556,0,39.055,1.84,58.57,3.054
					c35.579,2.216,71.285,2.363,106.885,0.432c4.188-0.229,9.91,0.813,10.037,5.011c0.752,24.734,1.504,49.468,2.251,74.202
					c1.016,33.435,2.023,67.027-2.109,100.217c-0.554,4.432,4.188,8.645,8.523,7.572c0.137,4.122-5.489,5.407-9.61,5.295
					c-27.311-0.742-54.621-1.484-81.937-2.226c-0.671,1.56-1.347,3.12-2.023,4.681c-5.245-4.371-12.918-3.512-19.683-2.592
					c-51.389,6.978-103.617,3.639-155.306,7.801c-2.917,0.234-6.83,1.789-6.088,4.62c-4.376-3.588-10.474-3.969-16.125-4.188
					c-15.79-0.615-31.763-1.215-47.242,1.946c-1.962-4.025-1.962-8.685-1.921-13.157c0.31-35.544,0.62-71.087,0.93-106.631
					c0.213-24.577,0.407-49.382-4.62-73.445c-0.783-3.751,2.414-7.389,6.063-8.553C89.551,105.489,93.495,106.134,97.286,106.673z
					 M287.907,122.712c-14.529-1.118-29.089-2.958-43.619-1.88c-52.756,3.903-105.675,5.595-158.574,5.077
					c3.009,55.8,3.562,111.733,1.662,167.584c-0.091,2.739,0.132,6.068,2.566,7.328c0.991,0.513,2.16,0.544,3.278,0.564
					c16.613,0.264,33.231,0.534,49.849,0.803c1.418,0.02,2.968,0.005,4.076-0.884c1.499-1.204,1.54-3.435,1.453-5.356
					c-2.632-55.623-10.245-111.118-8.324-166.771c0.95,1.713,1.088,3.74,1.204,5.692c3.329,55.338,6.652,110.671,9.981,166.009
					c56.517-0.905,113.009-3.227,169.409-6.973c1.718-0.112,3.669-0.351,4.681-1.748c0.737-1.027,0.742-2.394,0.711-3.654
					c-1.123-54.154-2.246-108.303-3.374-162.457c3.339,9.336,3.623,19.449,3.872,29.359c1.128,44.666,2.251,89.337,3.374,134.003
					c0.036,1.387,1.86,1.85,3.253,1.901c23.692,0.874,47.38,1.753,71.072,2.627c1.428,0.056,3.044,0.03,4.02-1.011
					c0.691-0.737,0.869-1.804,1.011-2.805c5.265-37.297,4.111-75.163,2.942-112.811c-0.549-17.701-1.098-35.396-1.652-53.097
					c-17.198,0.056-34.4,0.117-51.603,0.173C335.409,124.465,311.605,124.542,287.907,122.712z"/>
				<path style="fill:#FFFFFF;" d="M244.288,120.832c14.529-1.077,29.089,0.762,43.619,1.88c23.697,1.83,47.502,1.753,71.27,1.672
					c17.203-0.056,34.405-0.117,51.603-0.173c0.554,17.701,1.103,35.396,1.652,53.097c1.169,37.648,2.322,75.514-2.942,112.811
					c-0.142,1.001-0.32,2.068-1.011,2.805c-0.976,1.042-2.592,1.067-4.02,1.011c-23.692-0.874-47.38-1.753-71.072-2.627
					c-1.392-0.051-3.217-0.513-3.253-1.901c-1.123-44.666-2.246-89.337-3.374-134.003c-0.249-9.91-0.534-20.023-3.872-29.359
					c1.128,54.154,2.251,108.303,3.374,162.457c0.03,1.26,0.025,2.627-0.711,3.654c-1.011,1.398-2.963,1.636-4.681,1.748
					c-56.4,3.745-112.892,6.068-169.409,6.973c-3.329-55.338-6.652-110.671-9.981-166.009c-0.117-1.951-0.254-3.979-1.204-5.692
					c-1.921,55.653,5.692,111.149,8.324,166.771c0.086,1.921,0.046,4.152-1.453,5.356c-1.108,0.889-2.658,0.905-4.076,0.884
					c-16.618-0.269-33.236-0.539-49.849-0.803c-1.118-0.02-2.287-0.051-3.278-0.564c-2.434-1.26-2.658-4.589-2.566-7.328
					c1.901-55.851,1.347-111.784-1.662-167.584C138.613,126.427,191.532,124.735,244.288,120.832z M271.406,142.334
					c-0.483-3.07-3.298-5.997-6.347-5.412c-17.259,3.308-34.959,3.176-52.528,3.034c-12.73-0.102-25.466-0.208-38.196-0.31
					c-1.403-0.01-3.049,0.107-3.801,1.286c-0.31,0.493-0.401,1.093-0.483,1.667c-0.412,2.882-0.818,5.87-0.01,8.67
					s3.186,5.367,6.098,5.423c29.836,0.569,59.775,1.133,89.438-2.145c0.818-0.091,1.667-0.198,2.348-0.656
					c0.854-0.574,1.276-1.586,1.657-2.546C270.725,148.457,271.894,145.398,271.406,142.334z M288.629,177.679
					c-5.443-0.691-11.013-0.356-16.334,0.996c-0.767,1.235,0.173,2.963,1.509,3.547c1.337,0.579,2.866,0.361,4.304,0.127
					c3.888-0.625,7.77-1.25,11.653-1.875c0.33-0.056,0.681-0.117,0.935-0.335c0.513-0.442,0.346-1.347-0.163-1.799
					C290.021,177.887,289.305,177.765,288.629,177.679z M222.258,179.026c-1.535-0.666-3.273-0.635-4.945-0.6
					c-3.202,0.076-6.398,0.147-9.6,0.224c-6.561,0.147-13.122,0.3-19.683,0.452c-2.505,0.056-5.102,0.132-7.354,1.23
					c-0.513,1.479,0.691,3.095,2.155,3.644c1.464,0.544,3.085,0.32,4.64,0.158c12.415-1.337,25.141,1.286,37.378-1.215
					C225.073,181.262,223.793,179.697,222.258,179.026z M273.485,202.921c-7.958-1.225-16.044,0.269-24.063,1.021
					c-23.52,2.195-47.247-2.058-70.808-0.386c-1.164,0.081-2.627,0.442-2.8,1.591c-0.219,1.438,1.723,2.084,3.171,2.165
					c21.782,1.22,43.609,1.55,65.416,0.991c3.705-0.097,7.404-0.219,11.109-0.335c7.593-0.249,15.185-0.498,22.778-0.742
					C278.892,204.868,275.888,203.287,273.485,202.921z M248.039,219.895c-1.641-0.381-3.334,0.142-4.955,0.584
					c-16.821,4.604-34.725,0.9-52.101,2.419c-0.844,0.071-1.733,0.178-2.409,0.681c-0.681,0.508-1.027,1.56-0.498,2.221
					c0.417,0.523,1.169,0.605,1.84,0.645c18.905,1.093,37.978,2.175,56.705-0.625c1.601-0.239,3.481-0.737,3.989-2.272
					C251.144,221.959,249.675,220.271,248.039,219.895z M236.061,234.298c-1.581-1.108-3.69-0.91-5.611-0.691
					c-13.843,1.565-27.834,1.88-41.733,0.925c-0.981-0.066-1.992-0.132-2.907,0.224c-0.91,0.356-1.687,1.276-1.54,2.241
					c0.208,1.372,1.896,1.87,3.268,2.043c11.755,1.504,23.662,1.027,35.503,0.544c3.974-0.163,7.948-0.325,11.917-0.488
					c0.351-0.01,0.706-0.025,1.042-0.132C237.834,238.374,237.646,235.406,236.061,234.298z M227.411,255.068
					c-0.534-1.062-2.073-0.894-3.232-0.62c-14.021,3.38-29.15-0.32-42.958,3.852c-1.565,0.473-3.425,1.545-3.176,3.161
					c0.29,1.901,2.942,2.053,4.838,1.738c10.784-1.799,21.746-2.5,32.667-2.084c2.246,0.086,4.528,0.213,6.703-0.346
					c2.175-0.554,4.274-1.926,5.092-4.015C227.553,256.216,227.67,255.586,227.411,255.068z M284.452,260.048
					c-5.234-3.064-11.922-1.926-17.548,0.335c-0.955,0.381-1.941,0.833-2.531,1.672c-0.59,0.844-0.579,2.185,0.285,2.739
					c0.432,0.28,0.981,0.31,1.494,0.285c3.984-0.193,7.694-3.014,11.623-2.353c1.154,0.198,2.236,0.686,3.38,0.925
					c1.143,0.239,2.45,0.173,3.329-0.6C285.356,262.279,285.458,260.638,284.452,260.048z M271.619,286.775
					c-5.905-4.553-14.23-3.405-21.593-2.241c-22.117,3.512-44.513,5.229-66.9,5.143c-1.708-0.01-2.114,2.734-0.828,3.857
					c1.286,1.123,3.197,1.037,4.894,0.879C215.336,291.867,243.48,289.321,271.619,286.775z"/>
				<path d="M265.059,136.921c3.049-0.584,5.865,2.343,6.347,5.412c0.488,3.064-0.681,6.124-1.824,9.01
					c-0.381,0.96-0.803,1.972-1.657,2.546c-0.681,0.457-1.53,0.564-2.348,0.656c-29.664,3.278-59.602,2.714-89.438,2.145
					c-2.912-0.056-5.29-2.622-6.098-5.423s-0.401-5.788,0.01-8.67c0.081-0.574,0.173-1.174,0.483-1.667
					c0.752-1.179,2.399-1.296,3.801-1.286c12.73,0.102,25.466,0.208,38.196,0.31C230.099,140.098,247.8,140.23,265.059,136.921z"/>
				<path d="M272.295,178.675c5.321-1.352,10.891-1.687,16.334-0.996c0.676,0.086,1.392,0.208,1.906,0.661
					c0.508,0.452,0.676,1.357,0.163,1.799c-0.254,0.219-0.605,0.28-0.935,0.335c-3.883,0.625-7.765,1.25-11.653,1.875
					c-1.438,0.234-2.968,0.452-4.304-0.127C272.468,181.638,271.528,179.91,272.295,178.675z"/>
				<path d="M217.313,178.426c1.672-0.036,3.41-0.066,4.945,0.6c1.535,0.671,2.815,2.236,2.592,3.893
					c-12.237,2.5-24.963-0.122-37.378,1.215c-1.555,0.163-3.176,0.386-4.64-0.158c-1.464-0.549-2.668-2.165-2.155-3.644
					c2.251-1.098,4.848-1.174,7.354-1.23c6.561-0.152,13.122-0.305,19.683-0.452C210.915,178.573,214.111,178.502,217.313,178.426z"
					/>
				<path d="M249.421,203.943c8.019-0.752,16.105-2.246,24.063-1.021c2.404,0.366,5.407,1.946,4.802,4.304
					c-7.593,0.244-15.185,0.493-22.778,0.742c-3.705,0.117-7.404,0.239-11.109,0.335c-21.807,0.559-43.634,0.229-65.416-0.991
					c-1.448-0.081-3.39-0.727-3.171-2.165c0.173-1.149,1.636-1.509,2.8-1.591C202.174,201.885,225.902,206.138,249.421,203.943z"/>
				<path d="M243.084,220.48c1.621-0.442,3.313-0.966,4.955-0.584c1.636,0.376,3.105,2.063,2.572,3.654
					c-0.508,1.535-2.389,2.033-3.989,2.272c-18.727,2.8-37.8,1.718-56.705,0.625c-0.671-0.041-1.423-0.122-1.84-0.645
					c-0.529-0.661-0.183-1.713,0.498-2.221c0.676-0.503,1.565-0.61,2.409-0.681C208.359,221.379,226.262,225.084,243.084,220.48z"/>
				<path d="M230.45,233.607c1.921-0.219,4.03-0.417,5.611,0.691c1.586,1.108,1.774,4.076-0.061,4.665
					c-0.335,0.107-0.691,0.122-1.042,0.132c-3.969,0.163-7.943,0.325-11.917,0.488c-11.841,0.483-23.748,0.96-35.503-0.544
					c-1.372-0.173-3.059-0.671-3.268-2.043c-0.147-0.966,0.63-1.885,1.54-2.241c0.915-0.356,1.926-0.29,2.907-0.224
					C202.616,235.487,216.607,235.172,230.45,233.607z"/>
				<path d="M224.179,254.448c1.159-0.274,2.699-0.442,3.232,0.62c0.259,0.518,0.142,1.149-0.066,1.687
					c-0.818,2.089-2.917,3.461-5.092,4.015c-2.175,0.559-4.457,0.432-6.703,0.346c-10.921-0.417-21.883,0.285-32.667,2.084
					c-1.896,0.315-4.548,0.163-4.838-1.738c-0.249-1.616,1.611-2.688,3.176-3.161C195.028,254.128,210.158,257.827,224.179,254.448z
					"/>
				<path d="M266.903,260.384c5.626-2.262,12.314-3.4,17.548-0.335c1.006,0.59,0.905,2.231,0.03,3.003
					c-0.879,0.772-2.185,0.839-3.329,0.6c-1.143-0.239-2.226-0.727-3.38-0.925c-3.928-0.661-7.638,2.16-11.623,2.353
					c-0.513,0.025-1.062-0.005-1.494-0.285c-0.864-0.554-0.874-1.896-0.285-2.739C264.962,261.217,265.948,260.765,266.903,260.384z
					"/>
				<path d="M250.026,284.533c7.364-1.164,15.688-2.312,21.593,2.241c-28.139,2.546-56.283,5.092-84.427,7.638
					c-1.697,0.158-3.608,0.244-4.894-0.879c-1.286-1.123-0.879-3.867,0.828-3.857C205.513,289.763,227.909,288.045,250.026,284.533z
					"/>
				<path style="fill:#FFFFFF;" d="M230.491,326.211c13.752,0,27.504,0,41.256,0c1.962,0,4.03,0.025,5.738,0.996
					c3.075,1.758,3.806,5.793,4.162,9.315c2.084,20.602,2.236,41.408,0.447,62.041c-0.132,1.535-0.346,3.212-1.464,4.269
					c-1.042,0.976-2.577,1.149-3.994,1.25c-14.875,1.082-29.903,0.046-44.488-3.07c-1.687-0.361-3.776-1.271-3.644-2.988
					c1.824-23.103,1.159-46.399-1.977-69.364C226.288,326.907,228.717,326.211,230.491,326.211z"/>
				<path style="fill:#FFFFFF;" d="M215.067,388.11c2.333-0.315,4.955-0.564,6.8,0.9c3.476,2.765,0.925,8.548-2.658,11.175
					c-0.95,0.691-0.803,2.256-0.005,3.125c0.793,0.869,1.992,1.215,3.131,1.514c17.401,4.538,35.574,6.093,53.493,4.569
					c4.005-0.335,8.218-0.92,11.368-3.41c3.146-2.495,4.614-7.537,2.023-10.601c-1.016-1.204-0.295-3.197,1.032-4.04
					c1.332-0.849,3.003-0.874,4.579-0.869c16.059,0.015,32.627,0.127,47.405,6.414c1.952,0.833,4.177,2.302,3.933,4.406
					c-0.147,1.301-1.225,2.272-2.251,3.08c-21.101,16.623-49.849,18.88-76.708,19.241c-34.598,0.457-69.222-1.103-103.637-4.681
					c-2.475-0.259-5.097-0.584-7.054-2.124c-1.957-1.545-2.81-4.752-1.067-6.535C170.543,394.793,193.651,391.042,215.067,388.11z"
					/>
			</g>
			<g>
			</g>
		</g>
	</g>
</g>
<g id="phone" style="display:none;">
	<g style="display:inline;">
		<g id="XMLID_16_">
			<g>
				<path d="M332.551,353.619c0.045,14.073-1.715,28.101-4.093,41.974c-1.238,7.237-2.997,15.057-8.684,19.702
					c-6.351,5.188-15.436,4.721-23.612,4.146c-26.992-1.893-54.105-2.071-81.115-0.534c-8.136,0.463-16.371,1.078-24.378-0.432
					c-8.007-1.505-15.921-5.438-20.383-12.256c-5.184-7.923-4.877-18.099-4.391-27.553c1.082-20.891,2.16-41.782,3.242-62.673
					c0.543-10.506,1.087-21.016,1.145-31.535c0.098-17.916-1.202-35.806-1.982-53.704c-1.265-29.023-1.145-58.108,0.352-87.127
					c0.214-4.155,0.517-8.51,2.725-12.038c4.302-6.863,13.721-7.865,21.813-8.145c19.052-0.664,38.099-1.327,57.146-1.991
					c21.906-0.762,44.129-1.492,65.456,3.572c3.233,0.77,6.694,1.844,8.613,4.56c1.078,1.528,1.528,3.398,1.928,5.228
					c13.24,59.956,0.606,122.425,4.213,183.722C331.237,330.229,332.515,341.902,332.551,353.619z M322.673,390.961
					c1.764-13.383,3.532-26.827,3.144-40.321c-0.209-7.295-1.051-14.554-1.639-21.831c-5.121-63.573,9.174-128.499-4.177-190.865
					c-0.307-1.443-0.655-2.939-1.581-4.088c-1.251-1.55-3.296-2.178-5.224-2.663c-19.092-4.819-39.097-3.964-58.767-3.082
					c-19.172,0.864-38.344,1.723-57.516,2.587c-6.925,0.312-14.906,1.189-18.727,6.97c-2.209,3.34-2.436,7.566-2.57,11.57
					c-0.721,21.194-0.753,42.406-0.107,63.599c0.383,12.652,1.015,25.291,1.425,37.943c1.385,42.597,0.298,85.27-3.251,127.742
					c-0.454,5.451-0.949,10.987,0.125,16.349c1.073,5.366,3.955,10.635,8.751,13.262c4.066,2.231,8.92,2.32,13.556,2.351
					c35.895,0.254,71.794,0.503,107.693,0.757c3.149,0.022,6.413,0.022,9.285-1.274
					C319.867,406.913,321.702,398.327,322.673,390.961z"/>
				<path style="fill:#FFFFFF;" d="M325.817,350.639c0.387,13.494-1.381,26.939-3.144,40.321
					c-0.971,7.366-2.806,15.952-9.579,19.007c-2.872,1.296-6.137,1.296-9.285,1.274c-35.899-0.254-71.798-0.503-107.693-0.757
					c-4.636-0.031-9.49-0.12-13.556-2.351c-4.796-2.628-7.678-7.896-8.751-13.262c-1.073-5.362-0.579-10.898-0.125-16.349
					c3.549-42.472,4.636-85.145,3.251-127.742c-0.41-12.652-1.042-25.291-1.425-37.943c-0.646-21.194-0.615-42.406,0.107-63.599
					c0.134-4.004,0.361-8.23,2.57-11.57c3.821-5.781,11.802-6.658,18.727-6.97c19.172-0.864,38.344-1.723,57.516-2.587
					c19.671-0.882,39.676-1.737,58.767,3.082c1.928,0.485,3.972,1.113,5.224,2.663c0.926,1.149,1.274,2.645,1.581,4.088
					c13.351,62.366-0.944,127.292,4.177,190.865C324.766,336.086,325.608,343.345,325.817,350.639z M317.885,271.248
					c2.245-11.41,1.759-23.158,1.26-34.777c-0.971-22.615-1.955-45.367-6.769-67.483c-1.643-0.971-2.823,1.844-2.685,3.745
					c2.725,37.119,8.372,74.782,0.926,111.247c-5.291,25.915-4.168,52.648-3.028,79.071c-38.736,2.173-77.605,2.013-116.324-0.477
					c-1.728-0.111-4.044-0.909-3.754-2.619c2.93-17.386,2.832-35.12,2.73-52.751c-0.031-5.037-0.058-10.078-0.089-15.119
					c-0.049-7.878-0.094-15.761-0.138-23.639c-0.102-16.714-0.2-33.436-1.109-50.128c-0.864-15.952-2.472-31.864-4.81-47.665
					c-0.285-1.911,2.325-2.73,4.249-2.801c7.905-0.281,15.81-0.561,23.715-0.846c4.899-0.174,9.833-0.347,14.679,0.396
					c3.821,0.583,7.535,1.732,11.343,2.387c5.638,0.962,11.396,0.828,17.11,0.695c16.184-0.387,32.368-0.77,48.551-1.158
					c1.43-0.036,3.055-0.165,3.941-1.287c1.176-1.505,0.116-3.892-1.59-4.761c-1.701-0.868-3.728-0.672-5.629-0.477
					c-13.641,1.425-27.357,1.964-41.061,2.498c-6.186,0.24-12.412,0.481-18.544-0.365c-4.347-0.597-8.608-1.737-12.951-2.383
					c-12.804-1.902-25.803,0.548-38.736,0.98c-2.507,0.085-5.491-0.165-6.751-2.334c-0.646-1.109-2.512-0.713-3.157,0.392
					c-0.65,1.104-0.468,2.489-0.267,3.754c6.707,42.508,6.012,85.791,5.3,128.82c-0.076,4.6-0.156,9.205-0.232,13.81
					c-0.307,18.722-0.628,37.56-4.213,55.94c-0.579,2.984,3.483,4.449,6.511,4.64c13.645,0.859,27.326,0.926,40.998,0.998
					c3.892,0.018,7.785,0.036,11.677,0.058c21.207,0.107,42.414,0.214,63.622,0.316c2.334,0.013,4.868,0.094,6.671,1.577
					c1.127,0.926,2.966,0.147,3.643-1.145c0.677-1.296,0.539-2.841,0.396-4.293C310.217,334.465,311.744,302.404,317.885,271.248z
					 M268.72,152.858c2.761,0.334,5.108-2.721,4.698-5.469c-0.414-2.752-2.877-4.845-5.549-5.607
					c-2.677-0.762-5.531-0.432-8.27,0.045c-2.734,0.481-5.491,1.1-8.266,0.9c-4.698-0.338-9.37-3.011-13.89-1.679
					c-5.905,1.737-12.14,2.365-18.272,1.83c-1.906-0.165-3.959-0.41-5.62,0.534c-1.661,0.949-2.36,3.679-0.762,4.725
					c2.089,1.363,5.758-1.265,7.028,0.882c1.033,1.746,3.638,0.868,5.598,0.361c2.111-0.552,4.338-0.387,6.511-0.209
					C244.212,150.159,256.482,151.389,268.72,152.858z M263.309,402.335c1.928-1.715,2.886-4.373,2.81-6.956
					c-0.071-2.583-1.096-5.077-2.583-7.188c-2.12-3.006-5.211-5.313-8.693-6.498c-1.487-0.503-3.157-0.882-4.124-2.124
					c-1.069-1.367-3.002-1.777-4.725-1.577c-4.48,0.521-8.03,4.587-8.827,9.023c-0.802,4.436,0.757,9.045,3.322,12.75
					c1.006,1.452,2.196,2.823,3.714,3.732c2.632,1.572,5.887,1.55,8.956,1.483C256.731,404.904,260.632,404.704,263.309,402.335z"/>
				<path d="M319.146,236.471c0.499,11.619,0.984,23.367-1.26,34.777c-6.141,31.156-7.669,63.216-4.516,94.818
					c0.143,1.452,0.281,2.997-0.396,4.293c-0.677,1.292-2.516,2.071-3.643,1.145c-1.804-1.483-4.338-1.563-6.671-1.577
					c-21.207-0.102-42.414-0.209-63.622-0.316c-3.892-0.022-7.785-0.04-11.677-0.058c-13.672-0.071-27.353-0.138-40.998-0.998
					c-3.028-0.191-7.09-1.657-6.511-4.64c3.585-18.379,3.906-37.217,4.213-55.94c0.076-4.605,0.156-9.21,0.232-13.81
					c0.713-43.029,1.407-86.312-5.3-128.82c-0.2-1.265-0.383-2.65,0.267-3.754c0.646-1.104,2.512-1.501,3.157-0.392
					c1.26,2.169,4.244,2.418,6.751,2.334c12.933-0.432,25.932-2.881,38.736-0.98c4.342,0.646,8.604,1.786,12.951,2.383
					c6.132,0.846,12.358,0.606,18.544,0.365c13.703-0.534,27.42-1.073,41.061-2.498c1.902-0.196,3.928-0.392,5.629,0.477
					c1.706,0.868,2.766,3.255,1.59,4.761c-0.886,1.122-2.512,1.251-3.941,1.287c-16.184,0.387-32.368,0.77-48.551,1.158
					c-5.714,0.134-11.472,0.267-17.11-0.695c-3.808-0.655-7.522-1.804-11.343-2.387c-4.845-0.744-9.78-0.57-14.679-0.396
					c-7.905,0.285-15.81,0.566-23.715,0.846c-1.924,0.071-4.534,0.891-4.249,2.801c2.338,15.801,3.946,31.713,4.81,47.665
					c0.908,16.691,1.006,33.414,1.109,50.128c0.045,7.878,0.089,15.761,0.138,23.639c0.031,5.041,0.058,10.083,0.089,15.119
					c0.102,17.631,0.2,35.365-2.73,52.751c-0.289,1.71,2.026,2.507,3.754,2.619c38.718,2.489,77.588,2.65,116.324,0.477
					c-1.14-26.422-2.262-53.156,3.028-79.071c7.446-36.465,1.799-74.127-0.926-111.247c-0.138-1.902,1.042-4.716,2.685-3.745
					C317.191,191.104,318.175,213.857,319.146,236.471z"/>
				<path d="M273.418,147.389c0.41,2.748-1.937,5.803-4.698,5.469c-12.238-1.47-24.507-2.699-36.794-3.687
					c-2.173-0.178-4.4-0.343-6.511,0.209c-1.96,0.508-4.565,1.385-5.598-0.361c-1.269-2.147-4.939,0.481-7.028-0.882
					c-1.599-1.047-0.9-3.777,0.762-4.725c1.661-0.944,3.714-0.699,5.62-0.534c6.132,0.534,12.367-0.094,18.272-1.83
					c4.52-1.332,9.192,1.34,13.89,1.679c2.774,0.2,5.531-0.419,8.266-0.9c2.739-0.477,5.594-0.806,8.27-0.045
					C270.541,142.544,273.004,144.637,273.418,147.389z"/>
				<path d="M266.119,395.379c0.076,2.583-0.882,5.242-2.81,6.956c-2.677,2.369-6.578,2.57-10.149,2.645
					c-3.068,0.067-6.324,0.089-8.956-1.483c-1.519-0.909-2.708-2.28-3.714-3.732c-2.565-3.705-4.124-8.315-3.322-12.75
					c0.797-4.436,4.347-8.502,8.827-9.023c1.723-0.2,3.656,0.209,4.725,1.577c0.966,1.242,2.636,1.621,4.124,2.124
					c3.483,1.185,6.573,3.491,8.693,6.498C265.023,390.302,266.048,392.796,266.119,395.379z M261.674,396.813
					c0.508-1.603-0.178-3.358-1.162-4.725c-1.43-1.986-3.514-3.491-5.847-4.226c-1.995-0.623-4.119-0.69-6.213-0.753
					c-1.563-0.045-3.126-0.089-4.694-0.134c-0.392-0.013-0.824-0.009-1.122,0.245c-0.205,0.178-0.307,0.441-0.387,0.699
					c-1.029,3.34,0.552,7.125,3.269,9.326c2.721,2.2,6.359,2.997,9.851,2.917C257.916,400.099,260.904,399.235,261.674,396.813z"/>
				<path style="fill:#FFFFFF;" d="M260.512,392.087c0.984,1.367,1.67,3.122,1.162,4.725c-0.77,2.423-3.759,3.287-6.306,3.349
					c-3.491,0.08-7.13-0.717-9.851-2.917c-2.717-2.2-4.298-5.985-3.269-9.326c0.08-0.258,0.183-0.521,0.387-0.699
					c0.298-0.254,0.73-0.258,1.122-0.245c1.568,0.045,3.131,0.089,4.694,0.134c2.093,0.062,4.217,0.129,6.213,0.753
					C256.998,388.596,259.082,390.101,260.512,392.087z"/>
			</g>
			<g>
			</g>
		</g>
	</g>
</g>
<g id="documents">
	<g>
		<g id="XMLID_14_">
			<g>
				<path d="M275.837,199.481c2.376,19.706,2.898,39.606,1.546,59.389c-2.801,41.228-13.678,82.032-12.191,123.318
					c0.174,4.811,0.522,9.66,1.99,14.316c-2.396,2.26-2.608,5.699-4.347,8.385c-1.739,2.705-7.052,4.018-8.308,1.121
					c2.454-2.801,0.155-7.206-3.458-8.752c-3.613-1.546-7.844-1.121-11.843-0.696c-43.47,4.559-87.789,2.628-130.544-5.661
					c0.425-10.201,0.869-20.402,1.294-30.603c1.449-34.621,2.917-69.281,1.314-103.883c-0.869-18.798-2.647-37.616-1.159-56.375
					c0.425-5.603,5.989-10.066,12.075-11.708c6.086-1.642,12.616-1.043,18.933-0.348c37.616,4.134,75.424,11.225,113.079,7.477
					c3.999-0.386,8.423-1.14,10.742-4.019c1.797-2.222,6.008-1.661,8.056,0.386C275.064,193.879,275.509,196.757,275.837,199.481z
					 M264.091,283.368c3.091-24.942,3.323-50.154,0.715-75.135c-0.309-2.937-1.874-6.781-5.197-6.395
					c-39.857,4.695-80.1-2.589-119.937-7.419c-3.033-0.367-6.182-0.715-9.138,0.019c-2.956,0.715-5.719,2.801-6.028,5.487
					c-4.444,39.47,5.757,79.656-1.739,118.759c-1.043,5.41-1.043,10.935-1.043,16.422c0,15.649,0,31.317,0,46.986
					c0,1.198,0.058,2.512,0.966,3.381c0.734,0.696,1.835,0.947,2.879,1.159c42.426,8.675,86.688,5.216,130.061,1.7
					c-0.328-26.99,1.352-53.999,5.062-80.795C261.811,299.481,263.105,291.444,264.091,283.368z"/>
				<path style="fill:#FFFFFF;" d="M235.671,278.808c2.029,1.584,1.816,4.366,1.43,6.743c-0.077,0.483-0.155,0.966-0.232,1.449
					l-4.115-0.657c-3.11-1.507-5.97-4.811-4.212-7.535C229.856,276.78,234.396,280.856,235.671,278.808z"/>
				<path style="fill:#FFFFFF;" d="M236.869,287c-0.464,2.84-0.927,5.699-1.372,8.559c-0.29,1.777-0.618,3.613-1.739,5.12
					c-1.121,1.507-3.304,2.55-5.216,1.951c-19.899-6.163-41.132-8.964-62.19-8.192c-2.589,0.097-5.429,0.193-7.496-1.179
					c-2.087-1.372-2.376-4.811,0.039-5.603c0.618-0.213,1.275-0.213,1.932-0.213c17.388-0.019,34.795-0.019,52.183-0.039
					c4.386,0,9.351,0.232,12.171,3.168c2.531-1.41,5.062-2.821,7.573-4.231L236.869,287z"/>
				<path d="M236.715,261.807c-6.781,3.053-14.722,3.226-22.353,3.033c-19.88-0.502-39.721-2.898-59.022-7.168
					c-1.43-0.309-2.898-0.657-4.115-1.372c-2.956-1.719-3.825-5.12-4.482-8.192c-0.077-0.367-0.155-0.753-0.213-1.14
					c-0.135-0.889-0.174-1.797,0.155-2.627c0.464-1.198,1.932-2.222,3.304-1.855c16.75,4.308,33.848,7.554,51.12,9.699
					c5.429,0.676,10.916,1.236,16.364,0.831c4.927-0.367,10.838-1.217,13.949,2.164c0.985,1.082,1.546,2.512,2.84,3.323
					c0.406,0.27,0.947,0.386,1.468,0.386L236.715,261.807z"/>
				<path style="fill:#FFFFFF;" d="M230.861,323.862c-0.657-0.522-1.661-0.367-2.531-0.213c-6.356,1.236-12.906,1.642-19.397,1.217
					c-0.889-0.058-1.874-0.174-2.492-0.753c-0.657-0.599-0.696-1.526-0.715-2.357c-0.019-2.492-0.039-4.984,0.328-7.438
					c0.097-0.58,0.232-1.198,0.753-1.565c0.541-0.386,1.333-0.348,2.029-0.29c6.047,0.56,12.114,1.121,18.161,1.661
					c0.889,0.097,1.797,0.174,2.608,0.483c0.889,0.328,1.604,0.889,2.318,1.449c1.468,1.198,2.995,2.705,2.821,4.463
					c-0.174,1.7-0.386,3.381-0.618,5.062l-2.84-0.406C231.382,324.693,231.266,324.191,230.861,323.862z"/>
				<path style="fill:#FFFFFF;" d="M223.983,277.186c2.222,1.121,1.7,4.347-0.328,5.699c-2.048,1.352-4.811,1.391-7.361,1.372
					c-20.208-0.174-40.436-0.348-60.645-0.522c-2.125-0.019-3.787-1.777-4.192-3.593s0.135-3.69,0.676-5.487
					c0.193-0.618,0.406-1.256,0.947-1.661c0.676-0.522,1.681-0.522,2.57-0.483c22.025,0.947,44.01,2.357,65.977,4.192
					C222.437,276.76,223.268,276.838,223.983,277.186z"/>
				<path style="fill:#FFFFFF;" d="M218.245,340.149c-3.42-0.406-6.859-0.831-10.297-1.236c-1.314-0.155-2.821-0.406-3.497-1.41
					c-0.502-0.734-0.406-1.642-0.309-2.473c0.155-1.275,0.309-2.57,0.464-3.845c0.097-0.676,0.174-1.372,0.599-1.951
					c1.082-1.526,3.593-1.391,5.603-1.179c5.777,0.599,11.688,0.309,17.349-0.869c0.927-0.213,1.893-0.444,2.57-1.063
					c0.27-0.251,0.483-0.599,0.56-0.947l2.84,0.406c-0.599,4.076-1.41,8.134-2.454,12.133c-0.174,0.695-0.734,1.604-1.507,1.352
					c-2.048-0.638-4.154,0.638-6.24,1.101C222.07,340.593,220.138,340.361,218.245,340.149z"/>
				<path style="fill:#FFFFFF;" d="M211.522,232.46c2.357,3.323,5.564,6.202,9.312,8.327c0.638,0.367,1.314,0.715,2.067,0.811
					c1.275,0.155,2.512-0.444,3.516-1.179c2.84-2.009,4.695-5.062,5.042-8.269c0.097-0.908,0.058-1.874-0.425-2.685
					c-0.406-0.657-1.082-1.159-1.584-1.777c-0.502-0.599-0.811-1.449-0.386-2.106c0.232-0.367,0.676-0.618,1.121-0.753
					c1.565-0.483,3.342,0.097,4.559,1.101c1.198,0.985,1.971,2.318,2.705,3.632c1.41,2.512,2.801,5.603,1.082,7.96
					c-0.676,0.927-1.758,1.584-2.821,2.183c-3.555,1.99-7.303,3.729-11.186,5.158c-1.333,0.502-3.4,0.696-3.787-0.541
					c-0.367-1.179-1.874-1.7-3.149-2.202c-3.613-1.468-6.472-4.308-7.709-7.651c-0.213-0.58-0.367-1.236-0.058-1.777
					C210.15,232.151,211.154,231.939,211.522,232.46z"/>
				<path d="M217.704,231.166c2.434,0.406,4.907,0.58,7.399,0.522c-0.309,1.024-1.488,1.623-2.473,2.222
					c-0.985,0.618-1.971,1.623-1.584,2.628c0.348,0.85,1.584,1.217,2.57,0.966c0.985-0.232,1.758-0.927,2.396-1.623
					c0.773-0.869,1.468-1.932,1.217-3.014c-0.116-0.522-0.425-0.985-0.773-1.41c-0.406-0.522-0.869-1.024-1.391-1.488
					c-0.85-0.753-1.835-1.352-2.995-1.642c-1.835-0.464-4.115,0.116-4.946,1.642c-0.193,0.328-0.251,0.792,0.077,1.043
					C217.337,231.108,217.511,231.146,217.704,231.166z M214.748,246.583c-4.25-3.168-7.361-7.496-8.81-12.229
					c-0.367-1.179-0.618-2.473-0.155-3.632c0.811-2.029,3.458-2.995,4.888-4.733c0.657-0.811,1.063-1.797,1.932-2.454
					c0.85-0.638,2.009-0.85,3.11-1.024c2.531-0.425,5.042-0.85,7.573-1.256c3.98-0.676,8.462-1.256,11.843,0.753
					c2.067,1.217,3.342,3.226,4.54,5.158c1.874,3.033,3.825,6.453,2.821,9.776c-0.927,3.13-4.173,5.236-7.303,6.916
					c-2.55,1.372-5.158,2.666-7.825,3.845c-1.893,0.831-3.903,1.623-6.008,1.584C218.882,249.21,216.622,247.993,214.748,246.583z
					 M209.879,234.469c1.236,3.342,4.096,6.182,7.709,7.651c1.275,0.502,2.782,1.024,3.149,2.202
					c0.386,1.236,2.454,1.043,3.787,0.541c3.883-1.43,7.631-3.168,11.186-5.158c1.063-0.599,2.145-1.256,2.821-2.183
					c1.719-2.357,0.328-5.448-1.082-7.96c-0.734-1.314-1.507-2.647-2.705-3.632c-1.217-1.005-2.995-1.584-4.559-1.101
					c-0.444,0.135-0.889,0.386-1.121,0.753c-0.425,0.657-0.116,1.507,0.386,2.106c0.502,0.618,1.179,1.121,1.584,1.777
					c0.483,0.811,0.522,1.777,0.425,2.685c-0.348,3.207-2.202,6.26-5.042,8.269c-1.005,0.734-2.241,1.333-3.516,1.179
					c-0.753-0.097-1.43-0.444-2.067-0.811c-3.748-2.125-6.955-5.004-9.312-8.327c-0.367-0.522-1.372-0.309-1.7,0.232
					C209.512,233.233,209.667,233.89,209.879,234.469z"/>
				<path style="fill:#FFFFFF;" d="M207.928,346.08c-1.314-0.212-2.743-0.464-3.671-1.314c-0.927-0.869-0.966-2.55,0.27-3.053
					c0.618-0.251,1.352-0.116,2.029,0c7.245,1.372,14.664,1.99,22.083,1.893c0.696-0.019,1.236,0.58,1.333,1.198
					c0.097,0.599-0.155,1.198-0.386,1.777c-0.174,0.425-0.348,0.85-0.715,1.159c-0.676,0.618-1.777,0.618-2.743,0.56
					C220.003,347.973,213.956,347.027,207.928,346.08z"/>
				<path style="fill:#FFFFFF;" d="M202.557,312.058c0.638,0.696,0.599,1.681,0.541,2.57c-0.174,2.28-0.328,4.559-0.502,6.82
					c-0.097,1.352-0.753,3.168-2.28,3.014c-15.92-1.468-31.878-2.937-47.874-3.033c-0.985,0-2.106-0.058-2.685-0.753
					c-0.599-0.695-0.328-1.7-0.019-2.531c1.159-3.265,2.338-6.511,3.497-9.776c15.61-0.483,31.279,0.406,46.696,2.685
					C200.896,311.208,201.939,311.401,202.557,312.058z"/>
				<path d="M226.321,372.026c-11.302,0.773-22.643,1.546-33.926,1.121l0.135-4.134c8.52,0.232,17.426-2.26,26.062-1.488
					c2.164,0.193,4.695,0.464,6.144-0.966c0.213-0.232,0.406-0.502,0.425-0.792c0.019-0.908-1.294-1.236-2.318-1.294l0.56-3.961
					c0.58,0.077,1.256-0.058,1.681-0.406c0.966-0.831,1.526-2.145,2.821-2.473c1.294-0.309,2.55,0.58,3.536,1.391
					c1.024,0.85,2.067,1.758,2.531,2.917c0.464,1.178,0.116,2.685-1.14,3.246c-2.55,1.159-1.739,5.12-4.231,6.376
					C227.924,371.91,227.093,371.968,226.321,372.026z"/>
				<path style="fill:#FFFFFF;" d="M218.593,367.525c-8.636-0.773-17.542,1.719-26.062,1.488c-2.628-0.058-5.236-0.386-7.767-1.159
					c0.792-0.811,2.164-0.85,3.362-0.947s2.608-0.502,2.917-1.526c0.599-2.029,3.69-2.318,6.066-2.202
					c8.578,0.425,17.156,0.869,25.734,1.294c1.024,0.058,2.338,0.386,2.318,1.294c-0.019,0.29-0.213,0.56-0.425,0.792
					C223.287,367.989,220.756,367.718,218.593,367.525z"/>
				<path d="M163.396,225.891c-0.927-0.019-1.739,0.599-2.106,1.333c-0.367,0.734-0.348,1.584-0.251,2.376
					c0.058,0.56,0.174,1.159,0.58,1.604c0.522,0.599,1.43,0.734,2.318,0.734l-0.058,5.564c-2.164-0.019-4.366-0.155-6.511-0.386
					c-1.352-0.155-2.743-0.367-3.806-1.121c-1.063-0.734-1.642-2.164-0.908-3.168c2.183-2.975,1.661-6.801,1.256-10.317
					c-0.406-3.516-0.444-7.496,2.357-10.027c3.767-3.42,10.162-2.202,15.301-0.734c3.922,1.121,7.863,2.241,11.804,3.362
					c2.164,0.618,4.463,1.236,6.685,0.792c2.222-0.444,4.231-2.396,3.632-4.328c-0.464-1.526,1.99-2.685,3.593-2.009
					c1.604,0.696,2.318,2.318,2.763,3.845c0.425,1.526,0.773,3.168,2.009,4.289c0.676,0.599,1.584,1.005,2.164,1.7
					c0.56,0.676,0.599,1.835-0.27,2.202c-3.033,1.275-4.695,4.212-5.583,7.071c-0.889,2.879-1.236,5.893-2.685,8.559
					c-0.715,1.294-1.758,2.531-3.284,2.975c-1.546,0.425-3.555-0.367-3.729-1.777c-0.232-1.874-2.396-3.168-4.521-3.362
					c-0.753-0.077-1.507-0.058-2.26,0.039l-0.425-5.583c1.835-0.174,3.671-0.213,5.525-0.077c1.43,0.097,3.11,0.251,4.038-0.715
					c0.386-0.386,0.56-0.908,0.715-1.41c0.541-1.7,0.966-3.4,1.314-5.139c-1.101,0.193-1.893,1.005-2.724,1.661
					c-3.613,2.801-8.945,2.763-13.736,2.57C172.186,226.239,167.801,226.065,163.396,225.891z M161.097,220.733
					c0.367,0.464,1.352,0.541,1.584,0c0.367-0.869,1.584-1.14,2.628-1.294c2.492-0.367,4.984-0.734,7.477-1.082
					c-2.608-0.966-5.371-1.546-8.192-1.739c-1.121-0.077-2.434-0.039-3.13,0.753c-0.425,0.464-0.522,1.101-0.599,1.7
					C160.788,219.632,160.73,220.269,161.097,220.733z"/>
				<path style="fill:#FFFFFF;" d="M181.46,229.524c-5.603,0.483-11.148,2.048-16.789,2.396c-0.232,0.019-0.483,0.019-0.734,0.019
					c-0.889,0-1.797-0.135-2.318-0.734c-0.406-0.444-0.522-1.043-0.58-1.604c-0.097-0.792-0.116-1.642,0.251-2.376
					c0.367-0.734,1.179-1.352,2.106-1.333c4.405,0.174,8.79,0.348,13.195,0.522c4.791,0.193,10.124,0.232,13.736-2.57
					c0.831-0.657,1.623-1.468,2.724-1.661c-0.348,1.739-0.773,3.439-1.314,5.139c-0.155,0.502-0.328,1.024-0.715,1.41
					c-0.927,0.966-2.608,0.811-4.038,0.715C185.131,229.311,183.295,229.35,181.46,229.524z"/>
				<path style="fill:#FFFFFF;" d="M170.718,362.869c-9.641,0.386-19.397,0.773-28.806-1.101c-0.58-0.116-1.198-0.27-1.623-0.618
					c-0.328-0.29-0.502-0.676-0.618-1.063c-0.657-2.241,1.063-4.791,3.593-5.352c1.178-0.251,2.415-0.116,3.632,0.019
					c4.386,0.483,8.771,0.966,13.157,1.43c1.816,0.212,3.69,0.425,5.236,1.294c0.947,0.522,1.739,1.275,2.782,1.642
					c1.082,0.367,2.28,0.29,3.439,0.193c1.546-0.116,3.091-0.251,4.656-0.367c1.217-0.097,2.531-0.174,3.593,0.367
					s1.604,1.971,0.715,2.724c-0.502,0.444-1.294,0.483-2.009,0.522C175.877,362.656,173.307,362.772,170.718,362.869z"/>
				<path d="M164.671,231.919c5.641-0.348,11.186-1.913,16.789-2.396l0.425,5.583c-1.352,0.174-2.705,0.522-4.038,0.831
					c-4.559,1.063-9.273,1.584-13.968,1.565l0.058-5.564C164.188,231.939,164.439,231.939,164.671,231.919z"/>
				<path style="fill:#FFFFFF;" d="M157.716,298.283c14.142,2.067,28.806-0.309,42.871,2.106c0.753,0.135,1.526,0.29,2.145,0.715
					c1.372,0.966,1.236,2.821,0.985,4.366c-0.097,0.522-0.193,1.082-0.56,1.507c-0.831,1.005-2.531,0.889-3.922,0.676
					c-14.045-2.183-28.342-3.13-42.6-2.84c-1.739,0.039-2.125-2.145-1.797-3.651C155.166,299.77,156.132,298.051,157.716,298.283z"
					/>
				<path style="fill:#FFFFFF;" d="M146.124,268.627c-0.792,0.232-1.507,0.985-1.662,1.623l-3.072-0.618
					c0.386-1.971,0.811-3.941,1.236-5.912c1.179-5.39,2.415-10.954,1.507-16.383l2.396-0.367c0.058,0.386,0.135,0.773,0.213,1.14
					c0.657,3.072,1.526,6.472,4.482,8.192c1.217,0.715,2.685,1.063,4.115,1.372c19.3,4.27,39.142,6.665,59.022,7.168
					c7.631,0.193,15.572,0.019,22.353-3.033c0.251,3.072,0.502,6.163,0.753,9.235c0.077,1.178,0.174,2.415-0.425,3.458
					c-0.58,1.063-2.087,1.816-3.284,1.294c-4.463-1.971-9.583-2.338-14.567-2.685c-21.097-1.41-42.214-2.84-63.311-4.25
					c-1.488-0.097-2.241-1.565-3.226-2.531c-1.005-0.966-3.458-1.063-3.4,0.251C149.292,267.815,147.457,268.24,146.124,268.627z"/>
				<path style="fill:#FFFFFF;" d="M143.748,336.362c1.005-2.859,2.009-5.738,3.014-8.597c0.29-0.811,0.599-1.661,1.333-2.202
					c0.908-0.676,2.222-0.696,3.4-0.676c15.881,0.27,31.723,1.178,47.507,2.763c0.676,0.058,1.391,0.135,1.913,0.522
					c0.773,0.58,0.85,1.565,0.889,2.434c0.039,1.584,0.077,3.226-0.696,4.675c-0.753,1.43-2.57,2.57-4.308,2.164
					c-16.151-3.748-33.346,0.193-49.942-1.584c-0.753-0.077-1.294,0.425-1.507,1.063L143.748,336.362z"/>
				<path style="fill:#FFFFFF;" d="M214.748,246.583c1.874,1.41,4.134,2.627,6.607,2.705c2.106,0.039,4.115-0.753,6.008-1.584
					c2.666-1.179,5.274-2.473,7.825-3.845c3.13-1.681,6.376-3.787,7.303-6.916c1.005-3.323-0.947-6.743-2.821-9.776
					c-1.198-1.932-2.473-3.941-4.54-5.158c-3.381-2.009-7.863-1.43-11.843-0.753c-2.531,0.406-5.042,0.831-7.573,1.256
					c-1.101,0.174-2.26,0.386-3.11,1.024c-0.869,0.657-1.275,1.642-1.932,2.454c-1.43,1.739-4.076,2.705-4.888,4.733
					c-0.464,1.159-0.213,2.454,0.155,3.632C207.387,239.087,210.498,243.415,214.748,246.583z M138.145,307.286
					c-0.348-3.98-0.406-7.979-0.251-11.959l3.941,0.135c0,0.213,0.019,0.444,0.097,0.657c0.425,1.333,2.57,2.087,3.709,1.14
					c1.797-1.449,5.12,0.251,5.1,2.396c0,2.145-2.492,3.825-4.927,3.883c-1.082,0.039-1.178,1.526-0.502,2.26
					c0.696,0.734,1.797,1.198,2.183,2.087c0.309,0.696,0.116,1.468-0.097,2.183c-2.956,10.549-6.53,20.943-10.703,31.144
					c-0.58,1.468-2.396,3.226-3.671,2.144c-1.526-1.275-4.019,1.14-3.13,2.821c0.908,1.681,3.284,2.222,5.371,2.473
					c2.685,0.309,5.371,0.444,8.076,0.483l-0.019,2.512c-1.526,0-3.014,0.174-4.386,0.715c-2.338,0.927-4.096,3.362-3.13,5.448
					c0.58,1.256-0.773,2.492-1.855,3.458c-1.063,0.966-1.893,2.743-0.638,3.516c0.444,0.27,1.005,0.29,1.526,0.328
					c4.463,0.213,8.926,0.444,13.389,0.657c0.097,0.869-1.14,1.352-2.106,1.314c-0.985-0.039-2.029-0.309-2.898,0.077
					c-1.507,0.695-1.082,2.879,0.348,3.69c1.43,0.792,3.265,0.638,4.946,0.444c4.753-0.502,9.544-0.889,14.355-0.773
					c7.11,0.155,14.142,1.43,21.213,2.106c2.763,0.27,5.525,0.444,8.308,0.522c11.283,0.425,22.623-0.348,33.926-1.121
					c0.773-0.058,1.604-0.116,2.28-0.464c2.492-1.256,1.681-5.216,4.231-6.376c1.256-0.56,1.604-2.067,1.14-3.246
					c-0.464-1.159-1.507-2.067-2.531-2.917c-0.985-0.811-2.241-1.7-3.536-1.391c-1.294,0.328-1.855,1.642-2.821,2.473
					c-0.425,0.348-1.101,0.483-1.681,0.406c-0.773-0.058-1.391-0.464-1.159-1.101c1.217-0.947,0.444-2.879-0.985-3.516
					c-0.56-0.27-1.159-0.386-1.777-0.425l0.425-3.941c4.038,0.444,8.095,0.889,12.133,1.333c2.512,0.29,5.371,0.464,7.264-1.024
					c1.874-1.488,0.908-5.139-1.584-4.791c-1.314,0.174-2.512-0.869-2.801-2.009c-0.309-1.14,0.058-2.318,0.386-3.458
					c2.55-8.694,3.787-17.697,3.69-26.7c-0.039-3.381,0.232-7.554,3.709-9.022c0.889-0.367,0.985-1.488,0.599-2.28
					c-0.406-0.792-1.121-1.43-1.546-2.202c-0.56-1.063-0.522-2.26-0.464-3.42c0.483-10.143,0.966-20.286,1.449-30.429
					c0.193-4.366,0.425-8.771,1.874-12.944c0.444-1.236,0.985-2.608,0.348-3.767c-1.082-1.971-4.733-1.546-6.144,0.251
					c-1.391,1.797-1.236,4.173-1.005,6.337c0.097,0.947-0.985,1.488-2.087,1.488c-0.522,0-1.063-0.116-1.468-0.386
					c-1.294-0.811-1.855-2.241-2.84-3.323c-3.11-3.381-9.022-2.531-13.949-2.164c-5.448,0.406-10.935-0.155-16.364-0.831
					c-17.272-2.145-34.37-5.39-51.12-9.699c-1.372-0.367-2.84,0.657-3.304,1.855c-0.328,0.831-0.29,1.739-0.155,2.627l-2.396,0.367
					c-0.077-0.444-0.174-0.869-0.27-1.314c-1.739-0.696-3.883,0.367-4.772,1.874c-0.908,1.507-0.908,3.284-0.947,4.965
					c-0.348,18.489-6.569,36.746-5.197,55.177c0.135,1.642,0.85,3.767,2.724,3.767C137.817,311.826,138.319,309.179,138.145,307.286
					z M264.806,208.233c2.608,24.98,2.376,50.193-0.715,75.135c-0.985,8.076-2.28,16.113-3.4,24.169
					c-3.709,26.797-5.39,53.806-5.062,80.795c-43.373,3.516-87.635,6.974-130.061-1.7c-1.043-0.212-2.145-0.464-2.879-1.159
					c-0.908-0.869-0.966-2.183-0.966-3.381c0-15.668,0-31.337,0-46.986c0-5.487,0-11.012,1.043-16.422
					c7.496-39.103-2.705-79.288,1.739-118.759c0.309-2.685,3.072-4.772,6.028-5.487c2.956-0.734,6.105-0.386,9.138-0.019
					c39.837,4.83,80.081,12.114,119.937,7.419C262.932,201.452,264.496,205.297,264.806,208.233z M203.948,221.602
					c0.869-0.367,0.831-1.526,0.27-2.202c-0.58-0.696-1.488-1.101-2.164-1.7c-1.236-1.121-1.584-2.763-2.009-4.289
					c-0.444-1.526-1.159-3.149-2.763-3.845c-1.604-0.676-4.057,0.483-3.593,2.009c0.599,1.932-1.41,3.883-3.632,4.328
					c-2.222,0.444-4.521-0.174-6.685-0.792c-3.941-1.121-7.882-2.241-11.804-3.362c-5.139-1.468-11.534-2.685-15.301,0.734
					c-2.801,2.531-2.763,6.511-2.357,10.027c0.406,3.516,0.927,7.342-1.256,10.317c-0.734,1.005-0.155,2.434,0.908,3.168
					c1.063,0.753,2.454,0.966,3.806,1.121c2.145,0.232,4.347,0.367,6.511,0.386c4.695,0.019,9.409-0.502,13.968-1.565
					c1.333-0.309,2.685-0.657,4.038-0.831c0.753-0.097,1.507-0.116,2.26-0.039c2.125,0.193,4.289,1.488,4.521,3.362
					c0.174,1.41,2.183,2.202,3.729,1.777c1.526-0.444,2.57-1.681,3.284-2.975c1.449-2.666,1.797-5.68,2.685-8.559
					C199.253,225.814,200.915,222.878,203.948,221.602z"/>
				<path style="fill:#FFFFFF;" d="M141.854,341.733c0.638-1.797,1.256-3.574,1.893-5.371l1.604,0.56
					c-0.193,0.58-0.116,1.275,0.328,1.739c0.927,0.985,2.531,1.14,3.98,1.198c8.308,0.29,16.596-0.831,24.884-1.005
					c7.902-0.174,15.842,0.502,23.551,1.99c0.676,0.135,1.391,0.309,1.797,0.792c0.753,0.869-0.116,2.222-1.294,2.57
					c-1.178,0.348-2.473,0.039-3.69-0.232c-16.654-3.69-34.235,2.048-51.333,0.444c-0.58-0.058-1.217-0.155-1.623-0.541
					C141.371,343.317,141.603,342.448,141.854,341.733z"/>
				<path style="fill:#FFFFFF;" d="M137.894,295.327c0.367-8.597,1.758-17.175,3.497-25.695l3.072,0.618
					c-0.116,0.444,0.019,0.831,0.58,0.985c2.55,0.715,3.188,3.69,2.647,5.989c-0.541,2.299-1.816,4.579-1.391,6.897
					c0.077,0.444,0.232,0.889,0.58,1.217c0.715,0.676,1.932,0.58,2.937,0.85c1.623,0.425,2.705,2.048,2.357,3.516
					c-0.348,1.449-2.067,2.55-3.767,2.376c-1.546-0.155-3.207-0.116-4.579,0.58c-1.14,0.56-1.99,1.661-1.99,2.801L137.894,295.327z"
					/>
				<path style="fill:#FFFFFF;" d="M143.342,349.132c18.354,0.155,37.191-5.062,54.714-0.309c0.869,0.232,1.739,0.502,2.647,0.599
					c6.414,0.715,12.809,1.41,19.204,2.106l-0.425,3.941c-0.985-0.077-2.009,0.039-2.995,0.155
					c-9.273,0.985-18.663,0.251-27.975-0.483c-14.007-1.121-27.994-2.222-42.001-3.323c-1.043-0.097-2.125-0.174-3.188-0.174
					L143.342,349.132z"/>
				<path d="M209.648,308.967c6.26,1.294,12.77,1.7,19.185,1.217c0.985-0.077,2.125-0.27,2.57-1.063
					c0.444-0.753-0.097-1.719-0.908-2.202c-0.811-0.464-1.816-0.56-2.782-0.657c-5.525-0.58-10.974-1.719-16.209-3.362
					c-1.256-0.406-2.801-0.792-3.845-0.058c-0.831,0.58-0.985,1.604-1.082,2.531c-0.077,0.773-0.135,1.623,0.328,2.28
					C207.464,308.464,208.604,308.754,209.648,308.967z M204.528,341.714c-1.236,0.502-1.198,2.183-0.27,3.053
					c0.927,0.85,2.357,1.101,3.671,1.314c6.028,0.947,12.075,1.893,18.199,2.222c0.966,0.058,2.067,0.058,2.743-0.56
					c0.367-0.309,0.541-0.734,0.715-1.159c0.232-0.58,0.483-1.178,0.386-1.777c-0.097-0.618-0.638-1.217-1.333-1.198
					c-7.419,0.097-14.838-0.522-22.083-1.893C205.88,341.598,205.146,341.462,204.528,341.714z M204.141,335.029
					c-0.097,0.831-0.193,1.739,0.309,2.473c0.676,1.005,2.183,1.256,3.497,1.41c3.439,0.406,6.878,0.831,10.297,1.236
					c1.893,0.212,3.825,0.444,5.68,0.019c2.087-0.464,4.192-1.739,6.24-1.101c0.773,0.251,1.333-0.657,1.507-1.352
					c1.043-3.999,1.855-8.056,2.454-12.133c0.232-1.681,0.444-3.362,0.618-5.062c0.174-1.758-1.352-3.265-2.821-4.463
					c-0.715-0.56-1.43-1.121-2.318-1.449c-0.811-0.309-1.719-0.386-2.608-0.483c-6.047-0.541-12.114-1.101-18.161-1.661
					c-0.696-0.058-1.488-0.097-2.029,0.29c-0.522,0.367-0.657,0.985-0.753,1.565c-0.367,2.454-0.348,4.946-0.328,7.438
					c0.019,0.831,0.058,1.758,0.715,2.357c0.618,0.58,1.604,0.695,2.492,0.753c6.491,0.425,13.041,0.019,19.397-1.217
					c0.869-0.155,1.874-0.309,2.531,0.213c0.406,0.328,0.522,0.831,0.425,1.314c-0.077,0.348-0.29,0.695-0.56,0.947
					c-0.676,0.618-1.642,0.85-2.57,1.063c-5.661,1.178-11.573,1.468-17.349,0.869c-2.009-0.213-4.521-0.348-5.603,1.179
					c-0.425,0.58-0.502,1.275-0.599,1.951C204.451,332.459,204.296,333.754,204.141,335.029z M157.716,298.283
					c-1.584-0.232-2.55,1.488-2.879,2.879c-0.328,1.507,0.058,3.69,1.797,3.651c14.258-0.29,28.555,0.657,42.6,2.84
					c1.391,0.213,3.091,0.328,3.922-0.676c0.367-0.425,0.464-0.985,0.56-1.507c0.251-1.546,0.386-3.4-0.985-4.366
					c-0.618-0.425-1.391-0.58-2.145-0.715C186.522,297.974,171.858,300.35,157.716,298.283z M158.894,287.657
					c-2.415,0.792-2.125,4.231-0.039,5.603c2.067,1.372,4.907,1.275,7.496,1.179c21.059-0.773,42.291,2.029,62.19,8.192
					c1.913,0.599,4.096-0.444,5.216-1.951c1.121-1.507,1.449-3.342,1.739-5.12c0.444-2.859,0.908-5.719,1.372-8.559
					c0.077-0.483,0.155-0.966,0.232-1.449c0.386-2.376,0.599-5.158-1.43-6.743c-1.275,2.048-5.815-2.029-7.129,0
					c-1.758,2.724,1.101,6.028,4.212,7.535c-2.512,1.41-5.042,2.821-7.573,4.231c-2.821-2.937-7.786-3.168-12.171-3.168
					c-17.388,0.019-34.795,0.019-52.183,0.039C160.17,287.444,159.513,287.444,158.894,287.657z M153.234,308.368
					c-1.159,3.265-2.338,6.511-3.497,9.776c-0.309,0.831-0.58,1.835,0.019,2.531c0.58,0.696,1.7,0.753,2.685,0.753
					c15.997,0.097,31.955,1.565,47.874,3.033c1.526,0.155,2.183-1.661,2.28-3.014c0.174-2.26,0.328-4.54,0.502-6.82
					c0.058-0.889,0.097-1.874-0.541-2.57c-0.618-0.657-1.661-0.85-2.627-1.005C184.512,308.773,168.844,307.885,153.234,308.368z
					 M151.456,280.141c0.406,1.816,2.067,3.574,4.192,3.593c20.208,0.174,40.436,0.348,60.645,0.522
					c2.55,0.019,5.313-0.019,7.361-1.372c2.029-1.352,2.55-4.579,0.328-5.699c-0.715-0.348-1.546-0.425-2.357-0.483
					c-21.967-1.835-43.953-3.246-65.977-4.192c-0.889-0.039-1.893-0.039-2.57,0.483c-0.541,0.406-0.753,1.043-0.947,1.661
					C151.592,276.451,151.051,278.325,151.456,280.141z M146.762,327.765c-1.005,2.859-2.009,5.738-3.014,8.597
					c-0.638,1.797-1.256,3.574-1.893,5.371c-0.251,0.715-0.483,1.584,0.097,2.145c0.406,0.386,1.043,0.483,1.623,0.541
					c17.098,1.604,34.679-4.134,51.333-0.444c1.217,0.27,2.512,0.58,3.69,0.232c1.179-0.348,2.048-1.7,1.294-2.57
					c-0.406-0.483-1.121-0.657-1.797-0.792c-7.709-1.488-15.649-2.164-23.551-1.99c-8.288,0.174-16.576,1.294-24.884,1.005
					c-1.449-0.058-3.053-0.213-3.98-1.198c-0.444-0.464-0.522-1.159-0.328-1.739c0.213-0.638,0.753-1.14,1.507-1.063
					c16.596,1.777,33.79-2.164,49.942,1.584c1.739,0.406,3.555-0.734,4.308-2.164c0.773-1.449,0.734-3.091,0.696-4.675
					c-0.039-0.869-0.116-1.855-0.889-2.434c-0.522-0.386-1.236-0.464-1.913-0.522c-15.784-1.584-31.626-2.492-47.507-2.763
					c-1.179-0.019-2.492,0-3.4,0.676C147.361,326.103,147.051,326.953,146.762,327.765z M136.696,341.211
					c4.173-10.201,7.747-20.595,10.703-31.144c0.213-0.715,0.406-1.488,0.097-2.183c-0.386-0.889-1.488-1.352-2.183-2.087
					c-0.676-0.734-0.58-2.222,0.502-2.26c2.434-0.058,4.927-1.739,4.927-3.883c0.019-2.145-3.304-3.845-5.1-2.396
					c-1.14,0.947-3.284,0.193-3.709-1.14c-0.077-0.213-0.097-0.444-0.097-0.657c0-1.14,0.85-2.241,1.99-2.801
					c1.372-0.695,3.033-0.734,4.579-0.58c1.7,0.174,3.42-0.927,3.767-2.376c0.348-1.468-0.734-3.091-2.357-3.516
					c-1.005-0.27-2.222-0.174-2.937-0.85c-0.348-0.328-0.502-0.773-0.58-1.217c-0.425-2.318,0.85-4.598,1.391-6.897
					c0.541-2.299-0.097-5.274-2.647-5.989c-0.56-0.155-0.696-0.541-0.58-0.985c0.155-0.638,0.869-1.391,1.662-1.623
					c1.333-0.386,3.168-0.811,3.13-2.048c-0.058-1.314,2.396-1.217,3.4-0.251c0.985,0.966,1.739,2.434,3.226,2.531
					c21.097,1.41,42.214,2.84,63.311,4.25c4.984,0.348,10.104,0.715,14.567,2.685c1.198,0.522,2.705-0.232,3.284-1.294
					c0.599-1.043,0.502-2.28,0.425-3.458c-0.251-3.072-0.502-6.163-0.753-9.235l-0.985-2.917c1.101,0,2.183-0.541,2.087-1.488
					c-0.232-2.164-0.386-4.54,1.005-6.337c1.41-1.797,5.062-2.222,6.144-0.251c0.638,1.159,0.097,2.531-0.348,3.767
					c-1.449,4.173-1.681,8.578-1.874,12.944c-0.483,10.143-0.966,20.286-1.449,30.429c-0.058,1.159-0.097,2.357,0.464,3.42
					c0.425,0.773,1.14,1.41,1.546,2.202c0.386,0.792,0.29,1.913-0.599,2.28c-3.478,1.468-3.748,5.641-3.709,9.022
					c0.097,9.003-1.14,18.006-3.69,26.7c-0.328,1.14-0.696,2.318-0.386,3.458c0.29,1.14,1.488,2.183,2.801,2.009
					c2.492-0.348,3.458,3.304,1.584,4.791c-1.893,1.488-4.753,1.314-7.264,1.024c-4.038-0.444-8.095-0.889-12.133-1.333
					c-6.395-0.695-12.79-1.391-19.204-2.106c-0.908-0.097-1.777-0.367-2.647-0.599c-17.523-4.753-36.36,0.464-54.714,0.309
					c-2.705-0.039-5.39-0.174-8.076-0.483c-2.087-0.251-4.463-0.792-5.371-2.473c-0.889-1.681,1.604-4.096,3.13-2.821
					C134.3,344.438,136.116,342.68,136.696,341.211z"/>
				<path d="M176.031,367.39c2.512,0.483,5.1,0.599,7.631,0.367c-3.458-1.874-7.728-2.55-11.708-1.835
					C173.133,366.694,174.582,367.1,176.031,367.39z M146.897,354.754c-1.217-0.135-2.454-0.27-3.632-0.019
					c-2.531,0.56-4.25,3.111-3.593,5.352c0.116,0.386,0.29,0.773,0.618,1.063c0.425,0.348,1.043,0.502,1.623,0.618
					c9.409,1.874,19.165,1.488,28.806,1.101c2.589-0.097,5.158-0.213,7.747-0.309c0.715-0.039,1.507-0.077,2.009-0.522
					c0.889-0.753,0.348-2.183-0.715-2.724s-2.376-0.464-3.593-0.367c-1.565,0.116-3.11,0.251-4.656,0.367
					c-1.159,0.097-2.357,0.174-3.439-0.193c-1.043-0.367-1.835-1.121-2.782-1.642c-1.546-0.869-3.42-1.082-5.236-1.294
					C155.668,355.72,151.282,355.237,146.897,354.754z M133.953,361.265c1.082-0.966,2.434-2.202,1.855-3.458
					c-0.966-2.087,0.792-4.521,3.13-5.448c1.372-0.541,2.859-0.715,4.386-0.715c1.063,0,2.145,0.077,3.188,0.174
					c14.007,1.101,27.994,2.202,42.001,3.323c9.312,0.734,18.702,1.468,27.975,0.483c0.985-0.116,2.009-0.232,2.995-0.155
					c0.618,0.039,1.217,0.155,1.777,0.425c1.43,0.638,2.202,2.57,0.985,3.516c-0.232,0.638,0.386,1.043,1.159,1.101l-0.56,3.961
					c-8.578-0.425-17.156-0.869-25.734-1.294c-2.376-0.116-5.467,0.174-6.066,2.202c-0.309,1.024-1.719,1.43-2.917,1.526
					s-2.57,0.135-3.362,0.947c2.531,0.773,5.139,1.101,7.767,1.159l-0.135,4.134c-2.782-0.077-5.545-0.251-8.308-0.522
					c-7.071-0.676-14.103-1.951-21.213-2.106c-4.811-0.116-9.602,0.27-14.355,0.773c-1.681,0.193-3.516,0.348-4.946-0.444
					c-1.43-0.811-1.855-2.995-0.348-3.69c0.869-0.386,1.913-0.116,2.898-0.077c0.966,0.039,2.202-0.444,2.106-1.314
					c-4.463-0.213-8.926-0.444-13.389-0.657c-0.522-0.039-1.082-0.058-1.526-0.328C132.059,364.009,132.89,362.231,133.953,361.265z
					"/>
				<path d="M138.145,307.286c0.174,1.893-0.328,4.54-2.473,4.521c-1.874,0-2.589-2.125-2.724-3.767
					c-1.372-18.431,4.849-36.688,5.197-55.177c0.039-1.681,0.039-3.458,0.947-4.965c0.889-1.507,3.033-2.57,4.772-1.874
					c0.097,0.444,0.193,0.869,0.27,1.314c0.908,5.429-0.328,10.993-1.507,16.383c-0.425,1.971-0.85,3.941-1.236,5.912
					c-1.739,8.52-3.13,17.098-3.497,25.695C137.739,299.307,137.797,303.306,138.145,307.286z"/>
			</g>
			<g>
			</g>
		</g>
	</g>
	<g>
		<g id="XMLID_13_">
			<g>
				<path d="M374.936,246.036c0.723,0.026,1.265-0.955,0.826-1.549v0.103C375.194,244.771,374.807,245.417,374.936,246.036z
					 M326.848,136.954c-3.046,0.129-6.092,0.31-9.112,0.49l-0.465-7.047c11.977-0.826,23.979-1.6,35.982-2.401
					c4.362-0.31,8.725-0.594,13.113-0.878c0.774-0.052,1.678-0.181,2.065-0.852c1.988-3.459,8.028-3.175,9.705,0.413
					c0.516,1.11,0.645,2.349,0.774,3.562c2.684,27.258,1.962,54.722,1.239,82.108c-0.903,34.846-1.833,69.693-2.762,104.539
					c-0.077,2.633,3.433,3.691,6.066,3.665c2.659-0.026,6.066,0.181,6.918,2.71c1.136,3.381-3.691,5.446-7.253,5.679
					c-12.08,0.826-24.212,0.8-36.292-0.077c-7.563-0.542-15.126-1.42-22.715-1.42c-6.634-0.026-13.216,0.645-19.824,1.42
					l-0.955-7.615c6.04-0.774,12.106-1.549,18.172-1.678c13.448-0.31,26.845,2.426,40.267,1.497c1.058-0.077,2.452-0.516,2.426-1.6
					c-2.736-59.445,8.312-118.968,4.646-178.362c-0.077-1.007-0.181-2.091-0.878-2.814c-0.723-0.697-1.781-0.826-2.788-0.878
					C352.428,136.541,339.625,136.386,326.848,136.954z"/>
				<path d="M322.537,170.174c6.401-1.11,12.932-1.523,19.437-1.291c0.413,0.026,0.826,0.026,1.213,0.181
					c1.265,0.439,1.781,2.22,0.955,3.278c-0.723,0.903-2.039,1.058-3.201,1.136c-5.085,0.336-10.222,0.516-15.332,0.542
					c-1.239,0.026-2.633-0.026-3.536-0.878C321.143,172.291,321.298,170.381,322.537,170.174z"/>
				<path d="M321.505,179.105c5.653-0.155,11.306-0.929,16.804-2.246c0.465-0.103,0.955-0.232,1.445-0.155
					c1.6,0.232,2.117,2.555,1.213,3.898c-0.903,1.342-2.607,1.884-4.182,2.22c-4.388,0.929-8.931,1.007-13.319,0.206
					c-1.084-0.206-2.246-0.516-2.865-1.42C319.982,180.731,320.421,179.131,321.505,179.105z"/>
				<path d="M319.595,160.391c6.221-1.265,12.596-1.394,18.92-1.032c1.007,0.077,2.065,0.155,2.968,0.645
					c0.878,0.516,1.549,1.575,1.291,2.555c-0.413,1.497-2.426,1.755-3.975,1.729c-3.02-0.103-6.04-0.181-9.06-0.258
					c-2.065-0.077-4.259-0.103-6.092,0.852c-2.117,1.136-5.085-0.181-5.704-2.478c-0.103-0.31-0.129-0.671-0.026-0.981
					C318.149,160.779,318.924,160.546,319.595,160.391z"/>
				<path d="M262.73,230.755c24.573-1.988,49.792,3.485,73.668-2.581c1.755-0.439,3.614-0.955,5.343-0.413
					c1.729,0.542,3.097,2.633,2.194,4.207c-10.093,2.065-20.392,3.252-30.691,3.459c-16.881,0.361-33.866-1.781-50.618,0.465
					c-2.633,0.361-5.498,0.8-7.847-0.439C255.297,232.149,259.401,231.039,262.73,230.755z"/>
				<path d="M263.118,269.758c-2.271-0.387-4.801-1.136-5.782-3.227c2.168-1.6,5.111-1.497,7.821-1.342
					c21.243,1.084,42.642-0.619,63.446-5.033c1.781-0.361,3.691-0.749,5.292,0.077c1.626,0.8,2.349,3.381,0.878,4.388
					c-0.516,0.361-1.162,0.439-1.755,0.516c-9.06,1.187-18.12,2.349-27.154,3.51C291.666,270.454,277.185,272.287,263.118,269.758z"
					/>
				<path d="M258.549,290.123c0.465-2.246,1.136-5.111-0.749-6.453c-0.903-0.619-0.645-2.142,0.206-2.814
					c0.852-0.697,2.039-0.8,3.123-0.852c18.869-1.11,37.789-1.6,56.683-1.471c0.62,0,1.265,0,1.833,0.232
					c2.065,0.8,2.117,3.898,0.774,5.653c-1.6,2.065-4.285,2.891-6.814,3.562c-12.054,3.123-24.496,4.853-36.963,5.111
					c-2.839,0.052-6.221-0.31-7.486-2.814c12.622-1.239,25.244-2.452,37.892-3.691c2.323-0.232,5.188-0.878,5.756-3.149
					c-16.649-0.62-33.323-0.077-49.895,1.678c0.155,1.729,0.336,3.459,0.49,5.188c0.207,2.013-0.129,4.724-2.117,5.033
					C259.014,295.673,258.084,292.395,258.549,290.123z"/>
				<path style="fill:#FFFFFF;" d="M263.118,253.548c-0.749-0.155-1.523-0.284-2.271-0.284l-0.129-5.266c0.052,0,0.129,0,0.181,0
					c22.921-1.162,45.868-2.297,68.789-3.459l0.284,5.524c-6.479,0.413-12.984,2.117-19.411,3.356
					C294.944,256.361,278.76,256.413,263.118,253.548z"/>
				<path d="M260.846,253.264c0.749,0,1.523,0.129,2.271,0.284c15.642,2.865,31.826,2.814,47.443-0.129
					c6.427-1.239,12.932-2.943,19.411-3.356c2.504-0.181,5.033-0.129,7.537,0.206c1.678,0.232,3.51,0.697,4.388,2.142
					c0.852,1.445-0.284,3.898-1.936,3.459c-9.06-2.375-18.559,0.284-27.774,2.013c-16.933,3.227-34.433,3.33-51.392,0.31
					c-1.291-0.232-2.788-0.671-3.175-1.91c-0.361-1.187,0.645-2.426,1.833-2.814C259.891,253.315,260.382,253.264,260.846,253.264z"
					/>
				<path style="fill:#FFFFFF;" d="M323.647,164.883c1.833-0.955,4.027-0.929,6.092-0.852c3.02,0.077,6.04,0.155,9.06,0.258
					c1.549,0.026,3.562-0.232,3.975-1.729c0.258-0.981-0.413-2.039-1.291-2.555c-0.903-0.49-1.962-0.568-2.968-0.645
					c-6.324-0.361-12.7-0.232-18.92,1.032c-0.671,0.155-1.445,0.387-1.678,1.032c-0.103,0.31-0.077,0.671,0.026,0.981
					C318.562,164.702,321.531,166.019,323.647,164.883z M338.308,176.86c-5.498,1.316-11.151,2.091-16.804,2.246
					c-1.084,0.026-1.523,1.626-0.903,2.504c0.62,0.903,1.781,1.213,2.865,1.42c4.388,0.8,8.931,0.723,13.319-0.206
					c1.575-0.336,3.278-0.878,4.182-2.22c0.903-1.342,0.387-3.665-1.213-3.898C339.264,176.627,338.773,176.756,338.308,176.86z
					 M325.609,174.02c5.111-0.026,10.247-0.206,15.332-0.542c1.162-0.077,2.478-0.232,3.201-1.136
					c0.826-1.058,0.31-2.839-0.955-3.278c-0.387-0.155-0.8-0.155-1.213-0.181c-6.505-0.232-13.035,0.181-19.437,1.291
					c-1.239,0.206-1.394,2.117-0.465,2.968C322.976,173.994,324.37,174.046,325.609,174.02z M262.627,235.892
					c16.752-2.246,33.736-0.103,50.618-0.465c10.299-0.206,20.598-1.394,30.691-3.459c0.903-1.575-0.465-3.665-2.194-4.207
					c-1.729-0.542-3.588-0.026-5.343,0.413c-23.876,6.066-49.095,0.594-73.668,2.581c-3.33,0.284-7.434,1.394-7.95,4.698
					C257.129,236.692,259.994,236.253,262.627,235.892z M261.285,295.337c1.988-0.31,2.323-3.02,2.117-5.033
					c-0.155-1.729-0.336-3.459-0.49-5.188c16.571-1.755,33.246-2.297,49.895-1.678c-0.568,2.271-3.433,2.917-5.756,3.149
					c-12.648,1.239-25.27,2.452-37.892,3.691c1.265,2.504,4.646,2.865,7.486,2.814c12.467-0.258,24.909-1.988,36.963-5.111
					c2.53-0.671,5.214-1.497,6.814-3.562c1.342-1.755,1.291-4.853-0.774-5.653c-0.568-0.232-1.213-0.232-1.833-0.232
					c-18.894-0.129-37.815,0.361-56.683,1.471c-1.084,0.052-2.271,0.155-3.123,0.852c-0.852,0.671-1.11,2.194-0.206,2.814
					c1.884,1.342,1.213,4.207,0.749,6.453C258.084,292.395,259.014,295.673,261.285,295.337z M260.795,258.194
					c16.959,3.02,34.459,2.917,51.392-0.31c9.215-1.729,18.714-4.388,27.774-2.013c1.652,0.439,2.788-2.013,1.936-3.459
					c-0.878-1.445-2.71-1.91-4.388-2.142c-2.504-0.336-5.033-0.387-7.537-0.206l-0.284-5.524c2.762-0.129,5.498-0.284,8.26-0.413
					c0.723-0.052,1.471-0.103,2.013-0.568c1.058-0.878,0.568-2.71-0.594-3.459c-1.136-0.749-2.607-0.723-3.975-0.645
					c-25.735,1.187-51.469,2.401-77.204,3.588c-0.774,0.052-1.6,0.103-2.168,0.594c-1.11,0.929-0.568,2.891,0.645,3.691
					c1.162,0.749,2.659,0.723,4.053,0.671l0.129,5.266c-0.465,0-0.955,0.052-1.394,0.206c-1.187,0.387-2.194,1.626-1.833,2.814
					C258.007,257.523,259.504,257.961,260.795,258.194z M265.157,265.189c-2.71-0.155-5.653-0.258-7.821,1.342
					c0.981,2.091,3.51,2.839,5.782,3.227c14.068,2.53,28.548,0.697,42.745-1.11c9.034-1.162,18.094-2.323,27.154-3.51
					c0.594-0.077,1.239-0.155,1.755-0.516c1.471-1.007,0.749-3.588-0.878-4.388c-1.6-0.826-3.51-0.439-5.292-0.077
					C307.798,264.569,286.4,266.273,265.157,265.189z M368.844,141.11c3.665,59.394-7.382,118.917-4.646,178.362
					c0.026,1.084-1.368,1.523-2.426,1.6c-13.422,0.929-26.819-1.807-40.267-1.497c-6.066,0.129-12.132,0.903-18.172,1.678
					c-21.605,2.736-43.184,5.472-64.789,8.208c-2.478,0.31-3.51-3.072-3.614-5.575c-0.619-18.895-1.265-37.815-1.91-56.709
					c-0.31-9.551-0.645-19.075-0.955-28.626c-1.058-31.052-2.117-62.104-3.149-93.156c-0.026-0.413-0.026-0.878,0.258-1.213
					c0.284-0.361,0.826-0.439,1.291-0.465c26.07-1.884,52.115-3.743,78.185-5.627c3.02-0.206,6.066-0.439,9.086-0.645
					c3.02-0.181,6.066-0.361,9.112-0.49c12.777-0.568,25.58-0.413,38.331,0.465c1.007,0.052,2.065,0.181,2.788,0.878
					C368.664,139.019,368.767,140.103,368.844,141.11z M336.837,301.558c1.833,0.336,3.097-2.246,2.271-3.923
					c-0.852-1.678-2.814-2.452-4.646-2.814c-9.628-1.962-19.178,2.581-28.651,5.162c-17.862,4.878-36.834,2.839-55.238,5.085
					c-1.291,0.155-2.684,0.361-3.665,1.239c-1.007,0.852-1.342,2.607-0.336,3.459c0.671,0.568,1.652,0.542,2.555,0.49
					c13.629-0.878,27.283-1.755,40.912-2.659c4.879-0.31,9.783-0.62,14.506-1.833c3.304-0.826,6.479-2.091,9.757-3.02
					C321.608,300.681,329.377,300.268,336.837,301.558z M324.886,214.339c2.246-0.077,2.684-3.717,0.955-5.162
					c-1.729-1.445-4.233-1.291-6.479-1.058c-19.901,2.065-39.802,4.156-59.549,7.331c-1.678,0.284-3.562,0.671-4.543,2.065
					c-0.981,1.394-0.052,3.949,1.626,3.665C279.379,217.359,302.094,215.087,324.886,214.339z M300.442,169.761
					c1.704-0.258,1.652-3.072,0.206-3.975c-1.445-0.929-3.33-0.594-5.033-0.31c-16.339,2.659-33.53-3.717-49.43,0.903
					c-1.213,0.361-2.736,1.368-2.22,2.53c0.206,0.465,0.671,0.749,1.136,0.955c2.659,1.11,5.679,0.413,8.544-0.052
					C269.08,167.309,284.981,172.11,300.442,169.761z M285.497,200.891c0.258-0.981-0.232-2.117-1.162-2.581
					c-0.413-0.206-0.878-0.284-1.368-0.361c-8.028-1.136-16.21-1.058-24.212,0.284c-1.11,0.181-2.246,0.387-3.123,1.058
					c-0.903,0.645-1.471,1.884-1.032,2.891c0.284,0.671,0.903,1.11,1.575,1.342c1.988,0.723,4.156-0.155,6.195-0.723
					c4.027-1.084,8.26-0.878,12.416-0.671c2.814,0.155,5.627,0.284,8.441,0.439C284.232,202.62,285.239,201.897,285.497,200.891z
					 M280.128,184.707c0.336-0.8,0.103-1.807-0.568-2.375c-0.594-0.516-1.394-0.645-2.168-0.749
					c-8.905-1.239-17.888-2.478-26.845-1.936c-1.007,0.052-2.065,0.155-2.891,0.723c-0.826,0.542-1.316,1.729-0.8,2.581
					c0.336,0.516,0.929,0.8,1.523,0.981c3.072,0.929,6.376,0.026,9.602-0.103c2.091-0.077,4.156,0.181,6.221,0.413
					c4.595,0.568,9.189,1.136,13.784,1.704C278.863,186.049,279.767,185.533,280.128,184.707z"/>
				<path d="M260.717,247.998c-1.394,0.052-2.891,0.077-4.053-0.671c-1.213-0.8-1.755-2.762-0.645-3.691
					c0.568-0.49,1.394-0.542,2.168-0.594c25.735-1.187,51.469-2.401,77.204-3.588c1.368-0.077,2.839-0.103,3.975,0.645
					c1.162,0.749,1.652,2.581,0.594,3.459c-0.542,0.465-1.291,0.516-2.013,0.568c-2.762,0.129-5.498,0.284-8.26,0.413
					c-22.921,1.162-45.868,2.297-68.789,3.459C260.846,247.998,260.769,247.998,260.717,247.998z"/>
				<path d="M256.174,203.524c-0.671-0.232-1.291-0.671-1.575-1.342c-0.439-1.007,0.129-2.246,1.032-2.891
					c0.878-0.671,2.013-0.878,3.123-1.058c8.002-1.342,16.184-1.42,24.212-0.284c0.49,0.077,0.955,0.155,1.368,0.361
					c0.929,0.465,1.42,1.6,1.162,2.581c-0.258,1.007-1.265,1.729-2.271,1.678c-2.814-0.155-5.627-0.284-8.441-0.439
					c-4.156-0.206-8.389-0.413-12.416,0.671C260.33,203.369,258.162,204.246,256.174,203.524z"/>
				<path d="M255.271,217.514c0.981-1.394,2.865-1.781,4.543-2.065c19.746-3.175,39.647-5.266,59.549-7.331
					c2.246-0.232,4.749-0.387,6.479,1.058c1.729,1.445,1.291,5.085-0.955,5.162c-22.792,0.749-45.507,3.02-67.989,6.84
					C255.219,221.463,254.29,218.908,255.271,217.514z"/>
				<path d="M257.981,183.829c-3.227,0.129-6.53,1.032-9.602,0.103c-0.594-0.181-1.187-0.465-1.523-0.981
					c-0.516-0.852-0.026-2.039,0.8-2.581c0.826-0.568,1.884-0.671,2.891-0.723c8.957-0.542,17.939,0.697,26.845,1.936
					c0.774,0.103,1.575,0.232,2.168,0.749c0.671,0.568,0.903,1.575,0.568,2.375c-0.361,0.826-1.265,1.342-2.142,1.239
					c-4.595-0.568-9.189-1.136-13.784-1.704C262.137,184.01,260.072,183.751,257.981,183.829z"/>
				<path d="M290.04,307.598c-13.629,0.903-27.283,1.781-40.912,2.659c-0.903,0.052-1.884,0.077-2.555-0.49
					c-1.007-0.852-0.671-2.607,0.336-3.459c0.981-0.878,2.375-1.084,3.665-1.239c18.404-2.246,37.376-0.207,55.238-5.085
					c9.473-2.581,19.024-7.124,28.651-5.162c1.833,0.361,3.794,1.136,4.646,2.814c0.826,1.678-0.439,4.259-2.271,3.923
					c-7.46-1.291-15.229-0.878-22.534,1.187c-3.278,0.929-6.453,2.194-9.757,3.02C299.823,306.979,294.918,307.288,290.04,307.598z"
					/>
				<path d="M300.442,169.761c-15.461,2.349-31.362-2.452-46.797,0.052c-2.865,0.465-5.885,1.162-8.544,0.052
					c-0.465-0.206-0.929-0.49-1.136-0.955c-0.516-1.162,1.007-2.168,2.22-2.53c15.9-4.62,33.091,1.755,49.43-0.903
					c1.704-0.284,3.588-0.619,5.033,0.31C302.094,166.69,302.146,169.503,300.442,169.761z"/>
				<path d="M299.022,329.539c-22.379,2.839-44.784,5.679-67.163,8.492c-2.917,0.387-6.169,0.671-8.544-1.033
					c-3.227-2.297-3.33-6.943-3.149-10.867c2.117-48.217,0.542-96.486-1.032-144.729c-0.258-7.95-0.516-15.926-0.774-23.876
					c-0.232-7.021-0.594-14.481-4.595-20.263c34.485-2.297,68.996-4.595,103.507-6.866l0.465,7.047
					c-3.02,0.206-6.066,0.439-9.086,0.645c-26.07,1.884-52.115,3.743-78.185,5.627c-0.465,0.026-1.007,0.103-1.291,0.465
					c-0.284,0.336-0.284,0.8-0.258,1.213c1.032,31.052,2.091,62.104,3.149,93.156c0.31,9.551,0.645,19.075,0.955,28.626
					c0.645,18.895,1.291,37.815,1.91,56.709c0.103,2.504,1.136,5.885,3.614,5.575c21.605-2.736,43.184-5.472,64.789-8.208
					l0.955,7.615C302.533,329.1,300.778,329.306,299.022,329.539z"/>
			</g>
			<g>
			</g>
		</g>
	</g>
</g>
</svg>
