<?xml version="1.0" encoding="iso-8859-1"?>
<!-- Generator: Adobe Illustrator 18.1.1, SVG Export Plug-In . SVG Version: 6.00 Build 0)  -->
<svg version="1.1" xmlns="http://www.w3.org/2000/svg" xmlns:xlink="http://www.w3.org/1999/xlink" x="0px" y="0px"
	 viewBox="0 0 857.957 343.407" style="enable-background:new 0 0 857.957 343.407;" xml:space="preserve">
<g id="scale">
	<g id="nums">
		
			<text transform="matrix(0.9354 0 0 1 227.7854 211.4445)" style="fill:#707070; font-family:'SourceSansPro-Regular'; font-size:12;">50%</text>
		
			<text transform="matrix(0.9354 0 0 1 227.7854 211.4445)" style="fill:#707070; font-family:'SourceSansPro-Regular'; font-size:12;">50%</text>
		
			<text transform="matrix(0.9354 0 0 1 149.2444 211.4445)" style="fill:#707070; font-family:'SourceSansPro-Regular'; font-size:12;">0%</text>
		
			<text transform="matrix(0.9354 0 0 1 309.5711 211.4445)" style="fill:#707070; font-family:'SourceSansPro-Regular'; font-size:12;">100%</text>
		
			<text transform="matrix(0.9354 0 0 1 394.4837 211.4445)" style="fill:#707070; font-family:'SourceSansPro-Regular'; font-size:12;">150%</text>
		
			<text transform="matrix(0.9354 0 0 1 479.3958 211.4445)" style="fill:#707070; font-family:'SourceSansPro-Regular'; font-size:12;">200%</text>
		
			<text transform="matrix(0.9354 0 0 1 564.3079 211.4445)" style="fill:#707070; font-family:'SourceSansPro-Regular'; font-size:12;">250%</text>
		
			<text transform="matrix(0.9354 0 0 1 649.219 211.4445)" style="fill:#707070; font-family:'SourceSansPro-Regular'; font-size:12;">300%</text>
		
			<text transform="matrix(0.9354 0 0 1 734.1311 211.4445)" style="fill:#707070; font-family:'SourceSansPro-Regular'; font-size:12;">350%</text>
		
			<text transform="matrix(0.9354 0 0 1 818.5793 211.4445)" style="fill:#707070; font-family:'SourceSansPro-Regular'; font-size:12;">400%</text>
	</g>
	<g id="bar">
		<line style="fill:#707070;stroke:#CCCCCC;stroke-miterlimit:10;" x1="154.385" y1="186.907" x2="831.385" y2="186.907"/>
	</g>
	<g id="_x35_0s">
		<line style="fill:#707070;stroke:#CCCCCC;stroke-miterlimit:10;" x1="153.885" y1="173.407" x2="153.885" y2="195.407"/>
		<line style="fill:#707070;stroke:#CCCCCC;stroke-miterlimit:10;" x1="322.885" y1="173.407" x2="322.885" y2="195.407"/>
		<line style="fill:#707070;stroke:#CCCCCC;stroke-miterlimit:10;" x1="491.885" y1="173.407" x2="491.885" y2="195.407"/>
		<line style="fill:#707070;stroke:#CCCCCC;stroke-miterlimit:10;" x1="660.885" y1="173.407" x2="660.885" y2="195.407"/>
		<line style="fill:#707070;stroke:#CCCCCC;stroke-miterlimit:10;" x1="830.885" y1="173.407" x2="830.885" y2="195.407"/>
		<line style="fill:#707070;stroke:#CCCCCC;stroke-miterlimit:10;" x1="746.885" y1="173.407" x2="746.885" y2="195.407"/>
		<line style="fill:#707070;stroke:#CCCCCC;stroke-miterlimit:10;" x1="577.885" y1="173.407" x2="577.885" y2="195.407"/>
		<line style="fill:#707070;stroke:#CCCCCC;stroke-miterlimit:10;" x1="406.885" y1="173.407" x2="406.885" y2="195.407"/>
		<line style="fill:#707070;stroke:#CCCCCC;stroke-miterlimit:10;" x1="237.885" y1="173.407" x2="237.885" y2="195.407"/>
	</g>
	<g id="_x31_0s">
		<line style="fill:#707070;stroke:#CCCCCC;stroke-miterlimit:10;" x1="170.885" y1="180.407" x2="170.885" y2="187.407"/>
		<line style="fill:#707070;stroke:#CCCCCC;stroke-miterlimit:10;" x1="187.885" y1="180.407" x2="187.885" y2="187.407"/>
		<line style="fill:#707070;stroke:#CCCCCC;stroke-miterlimit:10;" x1="203.885" y1="180.407" x2="203.885" y2="187.407"/>
		<line style="fill:#707070;stroke:#CCCCCC;stroke-miterlimit:10;" x1="220.885" y1="180.407" x2="220.885" y2="187.407"/>
		<line style="fill:#707070;stroke:#CCCCCC;stroke-miterlimit:10;" x1="254.885" y1="180.407" x2="254.885" y2="187.407"/>
		<line style="fill:#707070;stroke:#CCCCCC;stroke-miterlimit:10;" x1="271.885" y1="180.407" x2="271.885" y2="187.407"/>
		<line style="fill:#707070;stroke:#CCCCCC;stroke-miterlimit:10;" x1="288.885" y1="180.407" x2="288.885" y2="187.407"/>
		<line style="fill:#707070;stroke:#CCCCCC;stroke-miterlimit:10;" x1="305.885" y1="180.407" x2="305.885" y2="187.407"/>
		<line style="fill:#707070;stroke:#CCCCCC;stroke-miterlimit:10;" x1="339.885" y1="180.407" x2="339.885" y2="187.407"/>
		<line style="fill:#707070;stroke:#CCCCCC;stroke-miterlimit:10;" x1="356.885" y1="180.407" x2="356.885" y2="187.407"/>
		<line style="fill:#707070;stroke:#CCCCCC;stroke-miterlimit:10;" x1="373.885" y1="180.407" x2="373.885" y2="187.407"/>
		<line style="fill:#707070;stroke:#CCCCCC;stroke-miterlimit:10;" x1="390.885" y1="180.407" x2="390.885" y2="187.407"/>
		<line style="fill:#707070;stroke:#CCCCCC;stroke-miterlimit:10;" x1="424.885" y1="180.407" x2="424.885" y2="187.407"/>
		<line style="fill:#707070;stroke:#CCCCCC;stroke-miterlimit:10;" x1="441.885" y1="180.407" x2="441.885" y2="187.407"/>
		<line style="fill:#707070;stroke:#CCCCCC;stroke-miterlimit:10;" x1="457.885" y1="180.407" x2="457.885" y2="187.407"/>
		<line style="fill:#707070;stroke:#CCCCCC;stroke-miterlimit:10;" x1="474.885" y1="180.407" x2="474.885" y2="187.407"/>
		<line style="fill:#707070;stroke:#CCCCCC;stroke-miterlimit:10;" x1="508.885" y1="180.407" x2="508.885" y2="187.407"/>
		<line style="fill:#707070;stroke:#CCCCCC;stroke-miterlimit:10;" x1="525.885" y1="180.407" x2="525.885" y2="187.407"/>
		<line style="fill:#707070;stroke:#CCCCCC;stroke-miterlimit:10;" x1="542.885" y1="180.407" x2="542.885" y2="187.407"/>
		<line style="fill:#707070;stroke:#CCCCCC;stroke-miterlimit:10;" x1="559.885" y1="180.407" x2="559.885" y2="187.407"/>
		<line style="fill:#707070;stroke:#CCCCCC;stroke-miterlimit:10;" x1="594.885" y1="180.407" x2="594.885" y2="187.407"/>
		<line style="fill:#707070;stroke:#CCCCCC;stroke-miterlimit:10;" x1="610.885" y1="180.407" x2="610.885" y2="187.407"/>
		<line style="fill:#707070;stroke:#CCCCCC;stroke-miterlimit:10;" x1="626.885" y1="180.407" x2="626.885" y2="187.407"/>
		<line style="fill:#707070;stroke:#CCCCCC;stroke-miterlimit:10;" x1="643.885" y1="180.407" x2="643.885" y2="187.407"/>
		<line style="fill:#707070;stroke:#CCCCCC;stroke-miterlimit:10;" x1="678.885" y1="180.407" x2="678.885" y2="187.407"/>
		<line style="fill:#707070;stroke:#CCCCCC;stroke-miterlimit:10;" x1="695.885" y1="180.407" x2="695.885" y2="187.407"/>
		<line style="fill:#707070;stroke:#CCCCCC;stroke-miterlimit:10;" x1="712.885" y1="180.407" x2="712.885" y2="187.407"/>
		<line style="fill:#707070;stroke:#CCCCCC;stroke-miterlimit:10;" x1="729.885" y1="180.407" x2="729.885" y2="187.407"/>
		<line style="fill:#707070;stroke:#CCCCCC;stroke-miterlimit:10;" x1="763.885" y1="180.407" x2="763.885" y2="187.407"/>
		<line style="fill:#707070;stroke:#CCCCCC;stroke-miterlimit:10;" x1="780.885" y1="180.407" x2="780.885" y2="187.407"/>
		<line style="fill:#707070;stroke:#CCCCCC;stroke-miterlimit:10;" x1="796.885" y1="180.407" x2="796.885" y2="187.407"/>
		<line style="fill:#707070;stroke:#CCCCCC;stroke-miterlimit:10;" x1="813.885" y1="180.407" x2="813.885" y2="187.407"/>
	</g>
</g>
<g id="Layer_6">
	<g id="legend-blocks">
		<g id="masked_copy_3">
		</g>
		<rect x="153.885" y="237.407" style="fill:#FF1D25;" width="24" height="23"/>
		<rect x="317.885" y="237.407" style="fill:#3FA9F5;" width="24" height="23"/>
		<rect x="317.885" y="267.407" style="fill:#E6E6E6;" width="24" height="23"/>
		<rect x="153.885" y="297.407" style="fill:#7AC943;" width="24" height="23"/>
		<rect x="153.885" y="267.407" style="fill:#FF931E;" width="24" height="23"/>
	</g>
	<g id="legend-texts">
		<g>
			
				<text transform="matrix(0.9566 0 0 1 185.385 252.9074)" style="fill:#999999; font-family:'SourceSansPro-Bold'; font-size:12.5649;">Medicaid</text>
		</g>
		<g>
			
				<text transform="matrix(0.9566 0 0 1 185.385 282.9074)" style="fill:#999999; font-family:'SourceSansPro-Bold'; font-size:12.5649;">FAMIS</text>
		</g>
		<g>
			
				<text transform="matrix(0.9566 0 0 1 185.385 312.9074)" style="fill:#999999; font-family:'SourceSansPro-Bold'; font-size:12.5649;">FAMIS MOMS</text>
		</g>
		<g>
			
				<text transform="matrix(0.9566 0 0 1 349.385 252.9074)" style="fill:#999999; font-family:'SourceSansPro-Bold'; font-size:12.5649;">Governor&#x2019;s Access Plan (GAP)</text>
		</g>
		<g>
			
				<text transform="matrix(0.9566 0 0 1 349.385 282.9074)" style="fill:#999999; font-family:'SourceSansPro-Bold'; font-size:12.5649;">ACA Marketplace Subsidies</text>
		</g>
	</g>
	<g id="persons">
		<g>
			
				<text transform="matrix(0.9566 0 0 1 95.9778 39.9074)" style="fill:#999999; font-family:'SourceSansPro-Bold'; font-size:12.5649;">Children</text>
		</g>
		<g>
			
				<text transform="matrix(0.9566 0 0 1 45.2097 68.9074)" style="fill:#999999; font-family:'SourceSansPro-Bold'; font-size:12.5649;">Pregnant Women</text>
		</g>
		<g>
			<text transform="matrix(0.9566 0 0 1 88.5984 93.9074)"><tspan x="0" y="0" style="fill:#999999; font-family:'SourceSansPro-Bold'; font-size:12.5649;">Parents &amp;</tspan><tspan x="-62.66" y="11.078" style="fill:#999999; font-family:'SourceSansPro-Bold'; font-size:12.5649;">Caretaker Relatives</tspan></text>
		</g>
		<g>
			
				<text transform="matrix(0.9566 0 0 1 71.3269 129.9074)" style="fill:#999999; font-family:'SourceSansPro-Bold'; font-size:12.5649;">Other Adults</text>
		</g>
		<g>
			<text transform="matrix(0.9566 0 0 1 32.0613 153.9074)"><tspan x="0" y="0" style="fill:#999999; font-family:'SourceSansPro-Bold'; font-size:12.5649;">Adults 21-64 with a</tspan><tspan x="-17.313" y="11.078" style="fill:#999999; font-family:'SourceSansPro-Bold'; font-size:12.5649;">Serious Mental Illness</tspan></text>
		</g>
	</g>
	<g id="bars">
		<rect x="153.808" y="24.407" style="fill:#FF1D25;" width="238.542" height="23"/>
		<rect x="392.35" y="24.407" style="fill:#FF931E;" width="99.84" height="23"/>
		<rect x="153.808" y="54.407" style="fill:#FF1D25;" width="238.542" height="23"/>
		<rect x="153.808" y="84.407" style="fill:#FF1D25;" width="81.2" height="23"/>
		<polygon style="fill:#3FA9F5;" points="203.992,144.407 153.385,144.407 153.385,167.407 203.992,167.407 323.385,167.407 
			323.385,144.407 		"/>
		<rect x="392.35" y="54.407" style="fill:#7AC943;" width="99.84" height="23"/>
		<rect x="492.19" y="54.407" style="fill:#E6E6E6;" width="338.382" height="23"/>
		<rect x="492.19" y="24.407" style="fill:#E6E6E6;" width="338.382" height="23"/>
		<rect x="388.438" y="84.407" style="fill:#E6E6E6;" width="442.134" height="23"/>
		<rect x="388.438" y="144.407" style="fill:#E6E6E6;" width="442.134" height="23"/>
		<rect x="388.438" y="114.407" style="fill:#E6E6E6;" width="442.134" height="23"/>
		<g id="masked">
		</g>
		<g id="masked_copy">
		</g>
		<g id="masked_copy_2">
		</g>
	</g>
</g>
<g id="Layer_15">
</g>
</svg>
